<svg width="1440" height="415" viewBox="0 0 1440 415" fill="none" xmlns="http://www.w3.org/2000/svg">
<g clip-path="url(#clip0_1_1355)">
<path d="M0 0H1440V415H0V0Z" fill="#163A24"/>
<path d="M591 265C591 250.641 602.641 239 617 239H823C837.359 239 849 250.641 849 265C849 279.359 837.359 291 823 291H617C602.641 291 591 279.359 591 265Z" fill="#FAB5A0"/>
<path d="M622.951 259.576C624.434 259.576 625.554 259.789 626.311 260.216C627.079 260.643 627.463 261.384 627.463 262.44C627.463 263.101 627.298 263.656 626.967 264.104C626.637 264.552 626.162 264.829 625.543 264.936V265.016C625.959 265.091 626.338 265.229 626.679 265.432C627.021 265.624 627.287 265.907 627.479 266.28C627.682 266.643 627.783 267.123 627.783 267.72C627.783 268.755 627.415 269.56 626.679 270.136C625.954 270.712 624.957 271 623.687 271H619.511V259.576H622.951ZM623.223 264.232C624.034 264.232 624.589 264.104 624.887 263.848C625.197 263.592 625.351 263.213 625.351 262.712C625.351 262.2 625.165 261.832 624.791 261.608C624.429 261.384 623.853 261.272 623.063 261.272H621.559V264.232H623.223ZM621.559 265.88V269.288H623.415C624.247 269.288 624.823 269.128 625.143 268.808C625.474 268.488 625.639 268.061 625.639 267.528C625.639 267.037 625.469 266.643 625.127 266.344C624.797 266.035 624.194 265.88 623.319 265.88H621.559ZM637.688 266.648C637.688 268.088 637.315 269.203 636.568 269.992C635.822 270.771 634.808 271.16 633.528 271.16C632.739 271.16 632.035 270.984 631.416 270.632C630.798 270.28 630.312 269.768 629.96 269.096C629.608 268.424 629.432 267.608 629.432 266.648C629.432 265.208 629.8 264.104 630.536 263.336C631.283 262.557 632.296 262.168 633.576 262.168C634.376 262.168 635.086 262.344 635.704 262.696C636.323 263.037 636.808 263.544 637.16 264.216C637.512 264.877 637.688 265.688 637.688 266.648ZM631.496 266.648C631.496 267.565 631.656 268.275 631.976 268.776C632.307 269.277 632.835 269.528 633.56 269.528C634.286 269.528 634.808 269.277 635.128 268.776C635.459 268.275 635.624 267.565 635.624 266.648C635.624 265.731 635.459 265.027 635.128 264.536C634.808 264.045 634.28 263.8 633.544 263.8C632.83 263.8 632.307 264.045 631.976 264.536C631.656 265.027 631.496 265.731 631.496 266.648ZM647.517 266.648C647.517 268.088 647.143 269.203 646.397 269.992C645.65 270.771 644.637 271.16 643.357 271.16C642.567 271.16 641.863 270.984 641.245 270.632C640.626 270.28 640.141 269.768 639.789 269.096C639.437 268.424 639.261 267.608 639.261 266.648C639.261 265.208 639.629 264.104 640.365 263.336C641.111 262.557 642.125 262.168 643.405 262.168C644.205 262.168 644.914 262.344 645.533 262.696C646.151 263.037 646.637 263.544 646.989 264.216C647.341 264.877 647.517 265.688 647.517 266.648ZM641.325 266.648C641.325 267.565 641.485 268.275 641.805 268.776C642.135 269.277 642.663 269.528 643.389 269.528C644.114 269.528 644.637 269.277 644.957 268.776C645.287 268.275 645.453 267.565 645.453 266.648C645.453 265.731 645.287 265.027 644.957 264.536C644.637 264.045 644.109 263.8 643.373 263.8C642.658 263.8 642.135 264.045 641.805 264.536C641.485 265.027 641.325 265.731 641.325 266.648ZM651.601 264.616C651.601 264.893 651.59 265.187 651.569 265.496C651.547 265.805 651.526 266.099 651.505 266.376H651.553C651.681 266.184 651.841 265.965 652.033 265.72C652.225 265.475 652.406 265.256 652.577 265.064L655.137 262.328H657.425L653.953 266.072L657.649 271H655.297L652.609 267.288L651.601 268.12V271H649.601V258.84H651.601V264.616ZM666.619 262.168C667.739 262.168 668.587 262.413 669.163 262.904C669.75 263.395 670.043 264.152 670.043 265.176V271H668.619L668.219 269.8H668.155C667.782 270.269 667.387 270.616 666.971 270.84C666.555 271.053 665.99 271.16 665.275 271.16C664.497 271.16 663.851 270.941 663.339 270.504C662.827 270.067 662.571 269.389 662.571 268.472C662.571 267.576 662.897 266.904 663.547 266.456C664.209 266.008 665.206 265.757 666.539 265.704L668.043 265.656V265.224C668.043 264.68 667.91 264.291 667.643 264.056C667.377 263.811 667.003 263.688 666.523 263.688C666.086 263.688 665.665 263.752 665.259 263.88C664.865 264.008 664.47 264.157 664.075 264.328L663.435 262.92C663.862 262.696 664.347 262.515 664.891 262.376C665.446 262.237 666.022 262.168 666.619 262.168ZM666.987 266.936C666.102 266.968 665.489 267.123 665.147 267.4C664.806 267.667 664.635 268.029 664.635 268.488C664.635 268.904 664.753 269.203 664.987 269.384C665.233 269.555 665.553 269.64 665.947 269.64C666.534 269.64 667.03 269.475 667.435 269.144C667.841 268.803 668.043 268.301 668.043 267.64V266.904L666.987 266.936ZM678.934 271H676.918V259.576H683.398V261.288H678.934V264.648H683.094V266.36H678.934V271ZM689.879 262.168C690.018 262.168 690.167 262.173 690.327 262.184C690.498 262.195 690.642 262.216 690.759 262.248L690.583 264.12C690.476 264.099 690.348 264.083 690.199 264.072C690.05 264.051 689.916 264.04 689.799 264.04C689.372 264.04 688.972 264.131 688.599 264.312C688.226 264.483 687.922 264.755 687.687 265.128C687.463 265.491 687.351 265.949 687.351 266.504V271H685.335V262.328H686.887L687.175 263.832H687.271C687.527 263.373 687.879 262.984 688.327 262.664C688.775 262.333 689.292 262.168 689.879 262.168ZM695.542 262.168C696.704 262.168 697.622 262.515 698.294 263.208C698.976 263.901 699.318 264.867 699.318 266.104V267.128H693.59C693.611 267.917 693.83 268.531 694.246 268.968C694.662 269.395 695.238 269.608 695.974 269.608C696.528 269.608 697.03 269.555 697.478 269.448C697.926 269.331 698.384 269.165 698.854 268.952V270.568C698.427 270.771 697.984 270.92 697.526 271.016C697.067 271.112 696.518 271.16 695.878 271.16C695.035 271.16 694.283 271 693.622 270.68C692.971 270.349 692.459 269.853 692.086 269.192C691.723 268.531 691.542 267.709 691.542 266.728C691.542 265.245 691.91 264.115 692.646 263.336C693.382 262.557 694.347 262.168 695.542 262.168ZM695.542 263.656C694.998 263.656 694.555 263.832 694.214 264.184C693.883 264.525 693.691 265.037 693.638 265.72H697.366C697.355 265.123 697.2 264.632 696.902 264.248C696.614 263.853 696.16 263.656 695.542 263.656ZM704.839 262.168C706.001 262.168 706.919 262.515 707.591 263.208C708.273 263.901 708.615 264.867 708.615 266.104V267.128H702.887C702.908 267.917 703.127 268.531 703.543 268.968C703.959 269.395 704.535 269.608 705.271 269.608C705.825 269.608 706.327 269.555 706.775 269.448C707.223 269.331 707.681 269.165 708.151 268.952V270.568C707.724 270.771 707.281 270.92 706.823 271.016C706.364 271.112 705.815 271.16 705.175 271.16C704.332 271.16 703.58 271 702.919 270.68C702.268 270.349 701.756 269.853 701.383 269.192C701.02 268.531 700.839 267.709 700.839 266.728C700.839 265.245 701.207 264.115 701.943 263.336C702.679 262.557 703.644 262.168 704.839 262.168ZM704.839 263.656C704.295 263.656 703.852 263.832 703.511 264.184C703.18 264.525 702.988 265.037 702.935 265.72H706.663C706.652 265.123 706.497 264.632 706.199 264.248C705.911 263.853 705.457 263.656 704.839 263.656ZM724.34 265.176C724.34 267.107 723.801 268.563 722.724 269.544C721.646 270.515 720.142 271 718.212 271H714.996V259.576H718.548C719.721 259.576 720.74 259.789 721.604 260.216C722.478 260.643 723.15 261.272 723.62 262.104C724.1 262.925 724.34 263.949 724.34 265.176ZM722.196 265.24C722.196 263.875 721.881 262.872 721.252 262.232C720.633 261.592 719.732 261.272 718.548 261.272H717.044V269.288H718.276C720.889 269.288 722.196 267.939 722.196 265.24ZM727.593 258.984C727.902 258.984 728.164 259.064 728.377 259.224C728.601 259.373 728.713 259.645 728.713 260.04C728.713 260.435 728.601 260.712 728.377 260.872C728.164 261.032 727.902 261.112 727.593 261.112C727.284 261.112 727.017 261.032 726.793 260.872C726.58 260.712 726.473 260.435 726.473 260.04C726.473 259.645 726.58 259.373 726.793 259.224C727.017 259.064 727.284 258.984 727.593 258.984ZM728.601 262.328V271H726.585V262.328H728.601ZM737.083 268.488C737.083 269.363 736.768 270.029 736.139 270.488C735.52 270.936 734.629 271.16 733.467 271.16C732.859 271.16 732.336 271.117 731.899 271.032C731.472 270.947 731.056 270.813 730.651 270.632V268.92C731.077 269.123 731.547 269.293 732.059 269.432C732.581 269.571 733.072 269.64 733.531 269.64C734.085 269.64 734.485 269.555 734.731 269.384C734.976 269.213 735.099 268.984 735.099 268.696C735.099 268.525 735.051 268.376 734.955 268.248C734.859 268.109 734.667 267.96 734.379 267.8C734.101 267.64 733.685 267.443 733.131 267.208C732.576 266.995 732.112 266.776 731.739 266.552C731.376 266.317 731.099 266.045 730.907 265.736C730.725 265.427 730.635 265.027 730.635 264.536C730.635 263.757 730.939 263.171 731.547 262.776C732.165 262.371 732.987 262.168 734.011 262.168C734.544 262.168 735.045 262.221 735.515 262.328C735.995 262.435 736.475 262.595 736.955 262.808L736.315 264.296C735.909 264.125 735.515 263.981 735.131 263.864C734.747 263.747 734.352 263.688 733.947 263.688C733.061 263.688 732.619 263.939 732.619 264.44C732.619 264.621 732.672 264.776 732.779 264.904C732.896 265.032 733.093 265.171 733.371 265.32C733.659 265.459 734.064 265.629 734.587 265.832C735.099 266.035 735.541 266.248 735.915 266.472C736.288 266.685 736.576 266.952 736.779 267.272C736.981 267.592 737.083 267.997 737.083 268.488ZM742.527 271.16C741.279 271.16 740.297 270.803 739.583 270.088C738.868 269.373 738.511 268.248 738.511 266.712C738.511 265.645 738.687 264.781 739.039 264.12C739.401 263.448 739.897 262.957 740.527 262.648C741.156 262.328 741.876 262.168 742.687 262.168C743.231 262.168 743.716 262.221 744.143 262.328C744.569 262.435 744.932 262.563 745.231 262.712L744.639 264.296C744.308 264.168 743.977 264.061 743.647 263.976C743.316 263.88 742.996 263.832 742.687 263.832C741.279 263.832 740.575 264.787 740.575 266.696C740.575 267.624 740.751 268.323 741.103 268.792C741.465 269.261 741.983 269.496 742.655 269.496C743.135 269.496 743.561 269.437 743.935 269.32C744.308 269.203 744.665 269.043 745.007 268.84V270.584C744.676 270.776 744.319 270.92 743.935 271.016C743.561 271.112 743.092 271.16 742.527 271.16ZM754.782 266.648C754.782 268.088 754.409 269.203 753.662 269.992C752.916 270.771 751.902 271.16 750.622 271.16C749.833 271.16 749.129 270.984 748.51 270.632C747.892 270.28 747.406 269.768 747.054 269.096C746.702 268.424 746.526 267.608 746.526 266.648C746.526 265.208 746.894 264.104 747.63 263.336C748.377 262.557 749.39 262.168 750.67 262.168C751.47 262.168 752.18 262.344 752.798 262.696C753.417 263.037 753.902 263.544 754.254 264.216C754.606 264.877 754.782 265.688 754.782 266.648ZM748.59 266.648C748.59 267.565 748.75 268.275 749.07 268.776C749.401 269.277 749.929 269.528 750.654 269.528C751.38 269.528 751.902 269.277 752.222 268.776C752.553 268.275 752.718 267.565 752.718 266.648C752.718 265.731 752.553 265.027 752.222 264.536C751.902 264.045 751.374 263.8 750.638 263.8C749.924 263.8 749.401 264.045 749.07 264.536C748.75 265.027 748.59 265.731 748.59 266.648ZM758.554 271L755.258 262.328H757.386L759.114 267.336C759.22 267.645 759.316 267.987 759.402 268.36C759.498 268.733 759.556 269.048 759.578 269.304H759.642C759.674 269.037 759.738 268.723 759.834 268.36C759.93 267.987 760.031 267.645 760.138 267.336L761.866 262.328H763.994L760.698 271H758.554ZM768.776 262.168C769.939 262.168 770.856 262.515 771.528 263.208C772.211 263.901 772.552 264.867 772.552 266.104V267.128H766.824C766.846 267.917 767.064 268.531 767.48 268.968C767.896 269.395 768.472 269.608 769.208 269.608C769.763 269.608 770.264 269.555 770.712 269.448C771.16 269.331 771.619 269.165 772.088 268.952V270.568C771.662 270.771 771.219 270.92 770.76 271.016C770.302 271.112 769.752 271.16 769.112 271.16C768.27 271.16 767.518 271 766.856 270.68C766.206 270.349 765.694 269.853 765.32 269.192C764.958 268.531 764.776 267.709 764.776 266.728C764.776 265.245 765.144 264.115 765.88 263.336C766.616 262.557 767.582 262.168 768.776 262.168ZM768.776 263.656C768.232 263.656 767.79 263.832 767.448 264.184C767.118 264.525 766.926 265.037 766.872 265.72H770.6C770.59 265.123 770.435 264.632 770.136 264.248C769.848 263.853 769.395 263.656 768.776 263.656ZM779.129 262.168C779.268 262.168 779.417 262.173 779.577 262.184C779.748 262.195 779.892 262.216 780.009 262.248L779.833 264.12C779.726 264.099 779.598 264.083 779.449 264.072C779.3 264.051 779.166 264.04 779.049 264.04C778.622 264.04 778.222 264.131 777.849 264.312C777.476 264.483 777.172 264.755 776.937 265.128C776.713 265.491 776.601 265.949 776.601 266.504V271H774.585V262.328H776.137L776.425 263.832H776.521C776.777 263.373 777.129 262.984 777.577 262.664C778.025 262.333 778.542 262.168 779.129 262.168ZM780.32 262.328H782.512L784.24 267.224C784.358 267.533 784.454 267.837 784.528 268.136C784.603 268.435 784.656 268.739 784.688 269.048H784.752C784.795 268.781 784.859 268.488 784.944 268.168C785.03 267.848 785.126 267.533 785.232 267.224L786.896 262.328H789.072L785.376 272.152C785.046 273.016 784.592 273.677 784.016 274.136C783.451 274.605 782.752 274.84 781.92 274.84C781.654 274.84 781.424 274.824 781.232 274.792C781.04 274.771 780.87 274.744 780.72 274.712V273.112C780.838 273.133 780.976 273.155 781.136 273.176C781.307 273.197 781.483 273.208 781.664 273.208C782.166 273.208 782.56 273.059 782.848 272.76C783.147 272.472 783.376 272.109 783.536 271.672L783.792 270.968L780.32 262.328ZM799.579 261.144C798.533 261.144 797.723 261.517 797.147 262.264C796.581 263.011 796.299 264.024 796.299 265.304C796.299 266.595 796.565 267.608 797.099 268.344C797.632 269.069 798.453 269.432 799.563 269.432C800.043 269.432 800.512 269.384 800.971 269.288C801.429 269.181 801.909 269.043 802.411 268.872V270.616C801.941 270.808 801.467 270.947 800.987 271.032C800.517 271.117 799.973 271.16 799.355 271.16C798.181 271.16 797.211 270.92 796.443 270.44C795.675 269.949 795.104 269.267 794.731 268.392C794.357 267.507 794.171 266.472 794.171 265.288C794.171 264.136 794.379 263.123 794.795 262.248C795.211 261.363 795.819 260.669 796.619 260.168C797.429 259.667 798.416 259.416 799.579 259.416C800.155 259.416 800.72 259.485 801.275 259.624C801.84 259.752 802.368 259.933 802.859 260.168L802.155 261.848C801.749 261.667 801.328 261.507 800.891 261.368C800.464 261.219 800.027 261.144 799.579 261.144ZM808.135 262.168C809.255 262.168 810.103 262.413 810.679 262.904C811.265 263.395 811.559 264.152 811.559 265.176V271H810.135L809.735 269.8H809.671C809.297 270.269 808.903 270.616 808.487 270.84C808.071 271.053 807.505 271.16 806.791 271.16C806.012 271.16 805.367 270.941 804.855 270.504C804.343 270.067 804.087 269.389 804.087 268.472C804.087 267.576 804.412 266.904 805.063 266.456C805.724 266.008 806.721 265.757 808.055 265.704L809.559 265.656V265.224C809.559 264.68 809.425 264.291 809.159 264.056C808.892 263.811 808.519 263.688 808.039 263.688C807.601 263.688 807.18 263.752 806.775 263.88C806.38 264.008 805.985 264.157 805.591 264.328L804.951 262.92C805.377 262.696 805.863 262.515 806.407 262.376C806.961 262.237 807.537 262.168 808.135 262.168ZM808.503 266.936C807.617 266.968 807.004 267.123 806.663 267.4C806.321 267.667 806.151 268.029 806.151 268.488C806.151 268.904 806.268 269.203 806.503 269.384C806.748 269.555 807.068 269.64 807.463 269.64C808.049 269.64 808.545 269.475 808.951 269.144C809.356 268.803 809.559 268.301 809.559 267.64V266.904L808.503 266.936ZM816.101 271H814.085V258.84H816.101V271ZM820.695 271H818.679V258.84H820.695V271Z" fill="#163A24"/>
<g clip-path="url(#clip1_1_1355)">
<path d="M1462.76 541.404C1397.43 550.694 1327.88 510.963 1288.93 442.093C1287.13 438.919 1285.32 435.36 1285.49 431.512C1285.96 421.064 1298.75 420.657 1303.48 412.237C1310.31 400.073 1296.33 385.426 1284.72 381.049C1268.79 375.034 1251.12 370.684 1239.98 354.873C1225.74 334.629 1228.07 303.937 1234.51 278.875C1240.95 253.814 1250.72 228.891 1248.5 202.343C1246.75 181.659 1240.45 153.668 1255.45 145.848C1264.56 141.103 1274.9 149.19 1282.28 158.028C1306.08 186.537 1321.29 227.36 1350.09 246.964C1370.5 260.859 1394.77 261.772 1415.83 273.974C1439.38 287.619 1456.94 314.279 1469.98 342.61C1481.28 367.115 1489.99 394.343 1490.36 422.306C1490.72 450.269 1481.67 479.068 1463.39 494.116" fill="#194429"/>
<path d="M1300.44 715.476C1335.8 683.676 1366.19 644.596 1390.22 600.048C1403.79 574.858 1415.23 548.109 1426.13 521.126C1433.84 502.046 1441.38 482.643 1445.42 461.998C1449.16 442.934 1449.86 423.213 1450.09 403.621C1450.49 370.484 1449.62 337.376 1447.5 304.299C1444.99 265.002 1440.42 224.854 1424.92 190.129C1419.65 178.3 1412.15 166.404 1401.24 163.43C1385.59 159.153 1371.21 174.925 1362.23 190.915C1349.42 213.748 1340.86 239.528 1332.77 265.264C1305.29 352.651 1281.64 444.761 1287.95 537.823" fill="#198C36"/>
<path d="M1371.96 527.158C1378.95 504.992 1385.01 482.444 1390.15 459.514C1395.28 436.583 1399.45 413.378 1402.66 389.898C1405.88 366.507 1408.15 342.974 1409.45 319.297C1410.76 295.62 1411.08 271.934 1410.44 248.239C1409.78 224.497 1408.15 200.783 1405.53 177.231C1405.22 174.301 1404.88 171.37 1404.51 168.437C1404.05 164.722 1399.33 166.087 1399.78 169.779C1402.61 193.071 1404.47 216.519 1405.34 240.035C1406.21 263.515 1406.11 287.006 1405.05 310.509C1403.98 334.055 1401.96 357.515 1398.98 380.887C1396.02 404.07 1392.12 427.038 1387.26 449.79C1382.39 472.542 1376.61 494.988 1369.89 517.128C1369.05 519.909 1368.19 522.693 1367.31 525.481C1366.19 528.973 1370.85 530.65 1371.96 527.158Z" fill="#153A23"/>
<path d="M1410.27 249.453C1413.67 236.855 1414.14 233.926 1419.3 222.264C1419.91 220.877 1426.93 205.929 1425.76 205.066C1424.71 204.281 1418.63 213.687 1418.01 215.091C1412.66 227.181 1409.15 234.7 1405.62 247.76C1404.66 251.307 1409.3 253.001 1410.27 249.453Z" fill="#153A23"/>
<path d="M1409.56 321.502C1413.13 304.544 1414.66 298.111 1420.21 282.016C1420.71 280.563 1428.32 263.688 1427.16 263.259C1425.8 262.763 1421.63 269.853 1420.9 271.167C1408.33 293.673 1408.47 302.845 1404.89 319.804C1404.14 323.435 1408.78 325.145 1409.56 321.502Z" fill="#153A23"/>
<path d="M1404.9 372.427C1410.1 352.447 1416.13 332.793 1422.96 313.538C1424.88 308.136 1424.81 308.097 1426.86 302.762C1427.42 301.336 1430.67 290.821 1429.47 289.925C1428.45 289.173 1422.3 300.985 1421.74 302.422C1414.33 321.742 1410.72 333.42 1404.95 353.536C1403.31 359.239 1401.75 364.968 1400.25 370.723C1399.31 374.315 1403.97 376.014 1404.9 372.427Z" fill="#153A23"/>
<path d="M1397.74 417.243C1407.6 402.841 1419.63 381.333 1426.73 364.748C1437.98 338.416 1426.04 353.609 1422.6 361.685C1415.69 377.835 1406.42 392.343 1396.83 406.35C1395.99 407.564 1395.76 409.235 1396.74 410.471C1397.56 411.501 1396.24 415.094 1397.08 413.868L1397.74 417.243H1397.74Z" fill="#153A23"/>
<path d="M1351.71 439.977C1294.78 454.958 1232.85 439.849 1185.22 399.372C1165.98 383.026 1148.17 360.76 1144.38 332.758C1143.95 329.583 1143.8 325.986 1145.51 323.513C1146.95 321.463 1149.26 320.739 1151.43 320.238C1202.17 308.353 1252.22 344.915 1289.49 388.127C1280.96 363.6 1276.71 337.225 1277.02 310.642C1277.11 303.051 1279.38 293.194 1285.67 292.96C1289.57 292.815 1292.62 296.758 1295.08 300.434C1318.8 336.116 1337.02 376.608 1348.89 420" fill="#1F7A36"/>
<path d="M1145.17 324.259C1170.24 316.546 1196.9 321.792 1220.45 333.766C1244.89 346.191 1266.1 365.895 1285.45 387.453C1296.64 399.912 1307.29 413.072 1317.92 426.193C1320.27 429.095 1324.17 425.519 1323.17 421.972C1314.78 391.981 1306.1 362.097 1297.98 331.995C1291.66 308.537 1288.79 313.171 1293.92 333.849C1301.44 364.18 1308.6 394.554 1317 424.522L1322.25 420.301C1303.07 396.581 1283.73 372.717 1261.43 353.186C1239.62 334.106 1214.81 319.269 1187.94 314.435C1172.97 311.745 1157.74 312.285 1143.06 316.808C1141.35 317.331 1140.49 319.91 1141.02 321.82C1141.63 323.953 1143.46 324.783 1145.17 324.259Z" fill="#163A24"/>
<path d="M1357.27 431.623C1333.51 431.572 1309.85 427.999 1286.82 420.986C1263.76 413.989 1241.49 403.649 1220.5 390.193C1208.75 382.669 1203.57 382.853 1190.48 371.197C1189.1 369.938 1175.43 357.274 1174.18 358.994C1173.1 360.465 1180.93 369.387 1182.37 370.645C1202.04 387.911 1223.39 402.199 1245.96 413.189C1268.61 424.222 1292.29 431.89 1316.49 436.023C1330.14 438.325 1343.9 439.482 1357.69 439.487C1361.86 439.487 1361.46 431.623 1357.27 431.623Z" fill="#194429"/>
<path d="M1209.67 365.294C1227.86 379.601 1241.77 400.129 1258.14 417.088C1261.33 420.39 1272.58 420.702 1269.38 417.394C1252.53 399.99 1236.44 379.167 1217.73 364.447C1216.25 363.283 1203.12 355.425 1202.38 357.174C1201.5 359.212 1208.19 364.13 1209.67 365.294Z" fill="#194429"/>
<path d="M1258.22 385.766C1271.94 401.627 1277.13 414.542 1291.32 428.02C1294.61 431.144 1309.53 432.13 1306.22 428.983C1292.02 415.511 1276.24 396.554 1262.84 381.957C1250.26 368.256 1242.5 366.881 1258.22 385.766Z" fill="#194429"/>
<path d="M1193.98 275.072C1193.65 269.324 1193.74 259.077 1194.28 253.352C1194.39 252.238 1194.82 250.818 1195.75 250.912C1196.6 250.985 1196.89 252.293 1196.97 253.307C1197.5 259.712 1198.01 266.127 1198.49 272.554C1203 270.139 1207.93 269.081 1212.85 269.475C1212.99 269.488 1213.12 269.546 1213.23 269.642C1213.34 269.739 1213.43 269.87 1213.49 270.023C1213.54 270.175 1213.56 270.342 1213.54 270.507C1213.53 270.671 1213.47 270.826 1213.38 270.956C1211.35 273.987 1208.58 276.184 1205.47 277.244C1204.34 277.617 1203.06 277.973 1202.5 279.204C1202.14 280 1202.23 280.958 1202.3 281.855C1202.74 287.412 1202.57 293.016 1201.79 298.518C1201.75 298.729 1201.66 298.923 1201.53 299.073C1201.4 299.223 1201.24 299.322 1201.06 299.359C1200.89 299.395 1200.71 299.366 1200.54 299.275C1200.38 299.185 1200.24 299.038 1200.15 298.852C1197.96 294.597 1198.21 288.711 1196.71 283.815C1196.58 283.247 1196.31 282.742 1195.93 282.373C1195.38 282.04 1194.75 281.947 1194.14 282.111C1189.44 282.725 1184.7 282.911 1179.98 282.668C1178.7 282.596 1176.95 281.649 1177.48 280.284C1177.68 279.879 1177.98 279.557 1178.33 279.365C1180.76 277.715 1183.44 276.652 1186.21 276.236L1193.98 275.072Z" fill="#FBC8B8"/>
<path d="M1419.4 104.095C1420.6 96.4822 1423.61 83.1717 1425.94 75.9317C1426.4 74.5338 1427.33 72.8519 1428.54 73.3532C1429.62 73.7987 1429.64 75.6198 1429.46 76.9732C1428.33 85.5127 1427.17 94.0726 1425.99 102.653C1432.54 101.348 1439.26 101.986 1445.56 104.513C1445.73 104.588 1445.89 104.718 1446 104.89C1446.12 105.062 1446.2 105.269 1446.23 105.489C1446.25 105.709 1446.23 105.933 1446.16 106.139C1446.09 106.345 1445.97 106.524 1445.83 106.657C1442.33 109.774 1438.11 111.504 1433.75 111.608C1432.18 111.608 1430.4 111.569 1429.33 112.945C1428.64 113.842 1428.49 115.117 1428.31 116.286C1427.32 123.704 1425.52 130.93 1422.94 137.773C1422.83 138.032 1422.66 138.247 1422.45 138.39C1422.24 138.532 1422 138.595 1421.76 138.57C1421.52 138.545 1421.3 138.434 1421.11 138.251C1420.92 138.068 1420.79 137.822 1420.72 137.544C1419.07 131.106 1421.06 123.543 1420.48 116.598C1420.47 115.806 1420.26 115.037 1419.87 114.399C1419.32 113.663 1418.43 113.468 1417.62 113.324C1411.32 112.202 1405.11 110.511 1399.02 108.267C1397.38 107.649 1395.37 105.699 1396.45 104.14C1396.82 103.691 1397.29 103.393 1397.81 103.288C1401.45 102.129 1405.24 101.836 1408.97 102.425L1419.4 104.095Z" fill="#FBC8B8"/>
<path d="M1153.96 394.253C1149.9 398.87 1150.9 408.633 1157.86 406.294C1168.12 402.825 1160.91 386.345 1153.96 394.253Z" fill="#F7BC28"/>
<path d="M1315.1 242.725C1311.45 243.098 1308.51 248.617 1312.79 250.845C1319.16 254.142 1321.36 242.096 1315.1 242.725Z" fill="#F7BC28"/>
<path d="M1328.71 189.138C1324.65 193.761 1325.65 203.523 1332.6 201.179C1342.87 197.709 1335.66 181.235 1328.71 189.138Z" fill="#F7BC28"/>
</g>
<path d="M549.234 214L545.004 202.732H544.932C544.968 203.104 544.998 203.608 545.022 204.244C545.046 204.868 545.058 205.522 545.058 206.206V214H543.564V201.148H545.958L549.918 211.678H549.99L554.022 201.148H556.398V214H554.796V206.098C554.796 205.474 554.808 204.856 554.832 204.244C554.868 203.632 554.898 203.134 554.922 202.75H554.85L550.566 214H549.234ZM563.332 204.19C564.508 204.19 565.378 204.448 565.942 204.964C566.506 205.48 566.788 206.302 566.788 207.43V214H565.636L565.33 212.632H565.258C564.838 213.16 564.394 213.55 563.926 213.802C563.47 214.054 562.834 214.18 562.018 214.18C561.142 214.18 560.416 213.952 559.84 213.496C559.264 213.028 558.976 212.302 558.976 211.318C558.976 210.358 559.354 209.62 560.11 209.104C560.866 208.576 562.03 208.288 563.602 208.24L565.24 208.186V207.61C565.24 206.806 565.066 206.248 564.718 205.936C564.37 205.624 563.878 205.468 563.242 205.468C562.738 205.468 562.258 205.546 561.802 205.702C561.346 205.846 560.92 206.014 560.524 206.206L560.038 205.018C560.458 204.79 560.956 204.598 561.532 204.442C562.108 204.274 562.708 204.19 563.332 204.19ZM563.8 209.338C562.6 209.386 561.766 209.578 561.298 209.914C560.842 210.25 560.614 210.724 560.614 211.336C560.614 211.876 560.776 212.272 561.1 212.524C561.436 212.776 561.862 212.902 562.378 212.902C563.194 212.902 563.872 212.68 564.412 212.236C564.952 211.78 565.222 211.084 565.222 210.148V209.284L563.8 209.338ZM571.334 207.466C571.334 207.658 571.322 207.91 571.298 208.222C571.286 208.534 571.274 208.804 571.262 209.032H571.334C571.406 208.936 571.514 208.798 571.658 208.618C571.802 208.438 571.946 208.258 572.09 208.078C572.246 207.886 572.378 207.73 572.486 207.61L575.564 204.352H577.418L573.512 208.474L577.688 214H575.78L572.432 209.5L571.334 210.454V214H569.768V200.32H571.334V207.466ZM583.11 204.172C583.938 204.172 584.646 204.352 585.234 204.712C585.834 205.072 586.29 205.582 586.602 206.242C586.926 206.89 587.088 207.652 587.088 208.528V209.482H580.482C580.506 210.574 580.782 211.408 581.31 211.984C581.85 212.548 582.6 212.83 583.56 212.83C584.172 212.83 584.712 212.776 585.18 212.668C585.66 212.548 586.152 212.38 586.656 212.164V213.55C586.164 213.766 585.678 213.922 585.198 214.018C584.718 214.126 584.148 214.18 583.488 214.18C582.576 214.18 581.766 213.994 581.058 213.622C580.362 213.25 579.816 212.698 579.42 211.966C579.036 211.222 578.844 210.316 578.844 209.248C578.844 208.192 579.018 207.286 579.366 206.53C579.726 205.774 580.224 205.192 580.86 204.784C581.508 204.376 582.258 204.172 583.11 204.172ZM583.092 205.468C582.336 205.468 581.736 205.714 581.292 206.206C580.86 206.686 580.602 207.358 580.518 208.222H585.432C585.42 207.406 585.228 206.746 584.856 206.242C584.484 205.726 583.896 205.468 583.092 205.468ZM600.501 211.336C600.501 212.272 600.153 212.98 599.457 213.46C598.761 213.94 597.825 214.18 596.649 214.18C595.977 214.18 595.395 214.126 594.903 214.018C594.423 213.91 593.997 213.76 593.625 213.568V212.128C594.009 212.32 594.471 212.5 595.011 212.668C595.563 212.824 596.121 212.902 596.685 212.902C597.489 212.902 598.071 212.776 598.431 212.524C598.791 212.26 598.971 211.912 598.971 211.48C598.971 211.24 598.905 211.024 598.773 210.832C598.641 210.64 598.401 210.448 598.053 210.256C597.717 210.064 597.231 209.848 596.595 209.608C595.971 209.368 595.437 209.128 594.993 208.888C594.549 208.648 594.207 208.36 593.967 208.024C593.727 207.688 593.607 207.256 593.607 206.728C593.607 205.912 593.937 205.282 594.597 204.838C595.269 204.394 596.145 204.172 597.225 204.172C597.813 204.172 598.359 204.232 598.863 204.352C599.379 204.46 599.859 204.616 600.303 204.82L599.763 206.08C599.355 205.912 598.929 205.768 598.485 205.648C598.041 205.528 597.585 205.468 597.117 205.468C596.469 205.468 595.971 205.576 595.623 205.792C595.287 205.996 595.119 206.278 595.119 206.638C595.119 206.902 595.197 207.13 595.353 207.322C595.509 207.502 595.767 207.682 596.127 207.862C596.499 208.03 596.991 208.234 597.603 208.474C598.215 208.702 598.737 208.936 599.169 209.176C599.601 209.416 599.931 209.71 600.159 210.058C600.387 210.394 600.501 210.82 600.501 211.336ZM610.897 204.352V214H609.601L609.367 212.722H609.295C608.983 213.226 608.551 213.598 607.999 213.838C607.447 214.066 606.859 214.18 606.235 214.18C605.071 214.18 604.195 213.904 603.607 213.352C603.019 212.788 602.725 211.894 602.725 210.67V204.352H604.327V210.562C604.327 212.098 605.041 212.866 606.469 212.866C607.537 212.866 608.275 212.566 608.683 211.966C609.103 211.366 609.313 210.502 609.313 209.374V204.352H610.897ZM618.46 204.172C618.64 204.172 618.832 204.184 619.036 204.208C619.252 204.22 619.438 204.244 619.594 204.28L619.396 205.738C619.24 205.702 619.066 205.672 618.874 205.648C618.694 205.624 618.52 205.612 618.352 205.612C617.86 205.612 617.398 205.75 616.966 206.026C616.534 206.29 616.186 206.668 615.922 207.16C615.67 207.64 615.544 208.204 615.544 208.852V214H613.96V204.352H615.256L615.436 206.116H615.508C615.82 205.588 616.222 205.132 616.714 204.748C617.206 204.364 617.788 204.172 618.46 204.172ZM624.77 204.172C625.598 204.172 626.306 204.352 626.894 204.712C627.494 205.072 627.95 205.582 628.262 206.242C628.586 206.89 628.748 207.652 628.748 208.528V209.482H622.142C622.166 210.574 622.442 211.408 622.97 211.984C623.51 212.548 624.26 212.83 625.22 212.83C625.832 212.83 626.372 212.776 626.84 212.668C627.32 212.548 627.812 212.38 628.316 212.164V213.55C627.824 213.766 627.338 213.922 626.858 214.018C626.378 214.126 625.808 214.18 625.148 214.18C624.236 214.18 623.426 213.994 622.718 213.622C622.022 213.25 621.476 212.698 621.08 211.966C620.696 211.222 620.504 210.316 620.504 209.248C620.504 208.192 620.678 207.286 621.026 206.53C621.386 205.774 621.884 205.192 622.52 204.784C623.168 204.376 623.918 204.172 624.77 204.172ZM624.752 205.468C623.996 205.468 623.396 205.714 622.952 206.206C622.52 206.686 622.262 207.358 622.178 208.222H627.092C627.08 207.406 626.888 206.746 626.516 206.242C626.144 205.726 625.556 205.468 624.752 205.468ZM634.368 204.352H636.06L638.148 209.842C638.328 210.322 638.49 210.784 638.634 211.228C638.778 211.66 638.886 212.074 638.958 212.47H639.03C639.102 212.17 639.216 211.78 639.372 211.3C639.528 210.808 639.69 210.316 639.858 209.824L641.82 204.352H643.53L639.372 215.332C639.036 216.244 638.598 216.97 638.058 217.51C637.53 218.05 636.798 218.32 635.862 218.32C635.574 218.32 635.322 218.302 635.106 218.266C634.89 218.242 634.704 218.212 634.548 218.176V216.916C634.68 216.94 634.836 216.964 635.016 216.988C635.208 217.012 635.406 217.024 635.61 217.024C636.162 217.024 636.606 216.868 636.942 216.556C637.29 216.244 637.56 215.83 637.752 215.314L638.256 214.036L634.368 204.352ZM653.443 209.158C653.443 210.754 653.035 211.99 652.219 212.866C651.415 213.742 650.323 214.18 648.943 214.18C648.091 214.18 647.329 213.988 646.657 213.604C645.997 213.208 645.475 212.638 645.091 211.894C644.707 211.138 644.515 210.226 644.515 209.158C644.515 207.562 644.917 206.332 645.721 205.468C646.525 204.604 647.617 204.172 648.997 204.172C649.873 204.172 650.641 204.37 651.301 204.766C651.973 205.15 652.495 205.714 652.867 206.458C653.251 207.19 653.443 208.09 653.443 209.158ZM646.153 209.158C646.153 210.298 646.375 211.204 646.819 211.876C647.275 212.536 647.995 212.866 648.979 212.866C649.951 212.866 650.665 212.536 651.121 211.876C651.577 211.204 651.805 210.298 651.805 209.158C651.805 208.018 651.577 207.124 651.121 206.476C650.665 205.828 649.945 205.504 648.961 205.504C647.977 205.504 647.263 205.828 646.819 206.476C646.375 207.124 646.153 208.018 646.153 209.158ZM664.018 204.352V214H662.722L662.488 212.722H662.416C662.104 213.226 661.672 213.598 661.12 213.838C660.568 214.066 659.98 214.18 659.356 214.18C658.192 214.18 657.316 213.904 656.728 213.352C656.14 212.788 655.846 211.894 655.846 210.67V204.352H657.448V210.562C657.448 212.098 658.162 212.866 659.59 212.866C660.658 212.866 661.396 212.566 661.804 211.966C662.224 211.366 662.434 210.502 662.434 209.374V204.352H664.018ZM671.581 204.172C671.761 204.172 671.953 204.184 672.157 204.208C672.373 204.22 672.559 204.244 672.715 204.28L672.517 205.738C672.361 205.702 672.187 205.672 671.995 205.648C671.815 205.624 671.641 205.612 671.473 205.612C670.981 205.612 670.519 205.75 670.087 206.026C669.655 206.29 669.307 206.668 669.043 207.16C668.791 207.64 668.665 208.204 668.665 208.852V214H667.081V204.352H668.377L668.557 206.116H668.629C668.941 205.588 669.343 205.132 669.835 204.748C670.327 204.364 670.909 204.172 671.581 204.172ZM680.776 203.65C680.776 204.058 680.764 204.442 680.74 204.802C680.728 205.15 680.71 205.426 680.686 205.63H680.776C681.052 205.222 681.43 204.88 681.91 204.604C682.39 204.328 683.008 204.19 683.764 204.19C684.964 204.19 685.924 204.61 686.644 205.45C687.376 206.278 687.742 207.52 687.742 209.176C687.742 210.832 687.376 212.08 686.644 212.92C685.912 213.76 684.952 214.18 683.764 214.18C683.008 214.18 682.39 214.042 681.91 213.766C681.43 213.49 681.052 213.16 680.776 212.776H680.65L680.326 214H679.192V200.32H680.776V203.65ZM683.494 205.504C682.474 205.504 681.766 205.798 681.37 206.386C680.974 206.974 680.776 207.886 680.776 209.122V209.194C680.776 210.382 680.968 211.294 681.352 211.93C681.748 212.554 682.474 212.866 683.53 212.866C684.394 212.866 685.036 212.548 685.456 211.912C685.888 211.276 686.104 210.358 686.104 209.158C686.104 206.722 685.234 205.504 683.494 205.504ZM698.33 204.352V214H697.034L696.8 212.722H696.728C696.416 213.226 695.984 213.598 695.432 213.838C694.88 214.066 694.292 214.18 693.668 214.18C692.504 214.18 691.628 213.904 691.04 213.352C690.452 212.788 690.158 211.894 690.158 210.67V204.352H691.76V210.562C691.76 212.098 692.474 212.866 693.902 212.866C694.97 212.866 695.708 212.566 696.116 211.966C696.536 211.366 696.746 210.502 696.746 209.374V204.352H698.33ZM707.675 211.336C707.675 212.272 707.327 212.98 706.631 213.46C705.935 213.94 704.999 214.18 703.823 214.18C703.151 214.18 702.569 214.126 702.077 214.018C701.597 213.91 701.171 213.76 700.799 213.568V212.128C701.183 212.32 701.645 212.5 702.185 212.668C702.737 212.824 703.295 212.902 703.859 212.902C704.663 212.902 705.245 212.776 705.605 212.524C705.965 212.26 706.145 211.912 706.145 211.48C706.145 211.24 706.079 211.024 705.947 210.832C705.815 210.64 705.575 210.448 705.227 210.256C704.891 210.064 704.405 209.848 703.769 209.608C703.145 209.368 702.611 209.128 702.167 208.888C701.723 208.648 701.381 208.36 701.141 208.024C700.901 207.688 700.781 207.256 700.781 206.728C700.781 205.912 701.111 205.282 701.771 204.838C702.443 204.394 703.319 204.172 704.399 204.172C704.987 204.172 705.533 204.232 706.037 204.352C706.553 204.46 707.033 204.616 707.477 204.82L706.937 206.08C706.529 205.912 706.103 205.768 705.659 205.648C705.215 205.528 704.759 205.468 704.291 205.468C703.643 205.468 703.145 205.576 702.797 205.792C702.461 205.996 702.293 206.278 702.293 206.638C702.293 206.902 702.371 207.13 702.527 207.322C702.683 207.502 702.941 207.682 703.301 207.862C703.673 208.03 704.165 208.234 704.777 208.474C705.389 208.702 705.911 208.936 706.343 209.176C706.775 209.416 707.105 209.71 707.333 210.058C707.561 210.394 707.675 210.82 707.675 211.336ZM710.817 200.734C711.057 200.734 711.267 200.818 711.447 200.986C711.639 201.142 711.735 201.394 711.735 201.742C711.735 202.078 711.639 202.33 711.447 202.498C711.267 202.666 711.057 202.75 710.817 202.75C710.553 202.75 710.331 202.666 710.151 202.498C709.971 202.33 709.881 202.078 709.881 201.742C709.881 201.394 709.971 201.142 710.151 200.986C710.331 200.818 710.553 200.734 710.817 200.734ZM711.591 204.352V214H710.007V204.352H711.591ZM719.291 204.172C720.443 204.172 721.313 204.454 721.901 205.018C722.489 205.57 722.783 206.47 722.783 207.718V214H721.217V207.826C721.217 206.278 720.497 205.504 719.057 205.504C717.989 205.504 717.251 205.804 716.843 206.404C716.435 207.004 716.231 207.868 716.231 208.996V214H714.647V204.352H715.925L716.159 205.666H716.249C716.561 205.162 716.993 204.79 717.545 204.55C718.097 204.298 718.679 204.172 719.291 204.172ZM729.5 204.172C730.328 204.172 731.036 204.352 731.624 204.712C732.224 205.072 732.68 205.582 732.992 206.242C733.316 206.89 733.478 207.652 733.478 208.528V209.482H726.872C726.896 210.574 727.172 211.408 727.7 211.984C728.24 212.548 728.99 212.83 729.95 212.83C730.562 212.83 731.102 212.776 731.57 212.668C732.05 212.548 732.542 212.38 733.046 212.164V213.55C732.554 213.766 732.068 213.922 731.588 214.018C731.108 214.126 730.538 214.18 729.878 214.18C728.966 214.18 728.156 213.994 727.448 213.622C726.752 213.25 726.206 212.698 725.81 211.966C725.426 211.222 725.234 210.316 725.234 209.248C725.234 208.192 725.408 207.286 725.756 206.53C726.116 205.774 726.614 205.192 727.25 204.784C727.898 204.376 728.648 204.172 729.5 204.172ZM729.482 205.468C728.726 205.468 728.126 205.714 727.682 206.206C727.25 206.686 726.992 207.358 726.908 208.222H731.822C731.81 207.406 731.618 206.746 731.246 206.242C730.874 205.726 730.286 205.468 729.482 205.468ZM742.216 211.336C742.216 212.272 741.868 212.98 741.172 213.46C740.476 213.94 739.54 214.18 738.364 214.18C737.692 214.18 737.11 214.126 736.618 214.018C736.138 213.91 735.712 213.76 735.34 213.568V212.128C735.724 212.32 736.186 212.5 736.726 212.668C737.278 212.824 737.836 212.902 738.4 212.902C739.204 212.902 739.786 212.776 740.146 212.524C740.506 212.26 740.686 211.912 740.686 211.48C740.686 211.24 740.62 211.024 740.488 210.832C740.356 210.64 740.116 210.448 739.768 210.256C739.432 210.064 738.946 209.848 738.31 209.608C737.686 209.368 737.152 209.128 736.708 208.888C736.264 208.648 735.922 208.36 735.682 208.024C735.442 207.688 735.322 207.256 735.322 206.728C735.322 205.912 735.652 205.282 736.312 204.838C736.984 204.394 737.86 204.172 738.94 204.172C739.528 204.172 740.074 204.232 740.578 204.352C741.094 204.46 741.574 204.616 742.018 204.82L741.478 206.08C741.07 205.912 740.644 205.768 740.2 205.648C739.756 205.528 739.3 205.468 738.832 205.468C738.184 205.468 737.686 205.576 737.338 205.792C737.002 205.996 736.834 206.278 736.834 206.638C736.834 206.902 736.912 207.13 737.068 207.322C737.224 207.502 737.482 207.682 737.842 207.862C738.214 208.03 738.706 208.234 739.318 208.474C739.93 208.702 740.452 208.936 740.884 209.176C741.316 209.416 741.646 209.71 741.874 210.058C742.102 210.394 742.216 210.82 742.216 211.336ZM750.83 211.336C750.83 212.272 750.482 212.98 749.786 213.46C749.09 213.94 748.154 214.18 746.978 214.18C746.306 214.18 745.724 214.126 745.232 214.018C744.752 213.91 744.326 213.76 743.954 213.568V212.128C744.338 212.32 744.8 212.5 745.34 212.668C745.892 212.824 746.45 212.902 747.014 212.902C747.818 212.902 748.4 212.776 748.76 212.524C749.12 212.26 749.3 211.912 749.3 211.48C749.3 211.24 749.234 211.024 749.102 210.832C748.97 210.64 748.73 210.448 748.382 210.256C748.046 210.064 747.56 209.848 746.924 209.608C746.3 209.368 745.766 209.128 745.322 208.888C744.878 208.648 744.536 208.36 744.296 208.024C744.056 207.688 743.936 207.256 743.936 206.728C743.936 205.912 744.266 205.282 744.926 204.838C745.598 204.394 746.474 204.172 747.554 204.172C748.142 204.172 748.688 204.232 749.192 204.352C749.708 204.46 750.188 204.616 750.632 204.82L750.092 206.08C749.684 205.912 749.258 205.768 748.814 205.648C748.37 205.528 747.914 205.468 747.446 205.468C746.798 205.468 746.3 205.576 745.952 205.792C745.616 205.996 745.448 206.278 745.448 206.638C745.448 206.902 745.526 207.13 745.682 207.322C745.838 207.502 746.096 207.682 746.456 207.862C746.828 208.03 747.32 208.234 747.932 208.474C748.544 208.702 749.066 208.936 749.498 209.176C749.93 209.416 750.26 209.71 750.488 210.058C750.716 210.394 750.83 210.82 750.83 211.336ZM762.427 204.172C763.615 204.172 764.569 204.586 765.289 205.414C766.021 206.242 766.387 207.49 766.387 209.158C766.387 210.802 766.021 212.05 765.289 212.902C764.569 213.754 763.609 214.18 762.409 214.18C761.665 214.18 761.047 214.042 760.555 213.766C760.075 213.478 759.697 213.148 759.421 212.776H759.313C759.337 212.98 759.361 213.238 759.385 213.55C759.409 213.862 759.421 214.132 759.421 214.36V218.32H757.837V204.352H759.133L759.349 205.666H759.421C759.709 205.246 760.087 204.892 760.555 204.604C761.023 204.316 761.647 204.172 762.427 204.172ZM762.139 205.504C761.155 205.504 760.459 205.78 760.051 206.332C759.655 206.884 759.445 207.724 759.421 208.852V209.158C759.421 210.346 759.613 211.264 759.997 211.912C760.393 212.548 761.119 212.866 762.175 212.866C762.763 212.866 763.243 212.704 763.615 212.38C763.999 212.056 764.281 211.618 764.461 211.066C764.653 210.502 764.749 209.86 764.749 209.14C764.749 208.036 764.533 207.154 764.101 206.494C763.681 205.834 763.027 205.504 762.139 205.504ZM776.975 204.352V214H775.679L775.445 212.722H775.373C775.061 213.226 774.629 213.598 774.077 213.838C773.525 214.066 772.937 214.18 772.313 214.18C771.149 214.18 770.273 213.904 769.685 213.352C769.097 212.788 768.803 211.894 768.803 210.67V204.352H770.405V210.562C770.405 212.098 771.119 212.866 772.547 212.866C773.615 212.866 774.353 212.566 774.761 211.966C775.181 211.366 775.391 210.502 775.391 209.374V204.352H776.975ZM783.26 212.884C783.5 212.884 783.746 212.866 783.998 212.83C784.25 212.782 784.454 212.734 784.61 212.686V213.892C784.442 213.976 784.202 214.042 783.89 214.09C783.578 214.15 783.278 214.18 782.99 214.18C782.486 214.18 782.018 214.096 781.586 213.928C781.166 213.748 780.824 213.442 780.56 213.01C780.296 212.578 780.164 211.972 780.164 211.192V205.576H778.796V204.82L780.182 204.19L780.812 202.138H781.748V204.352H784.538V205.576H781.748V211.156C781.748 211.744 781.886 212.182 782.162 212.47C782.45 212.746 782.816 212.884 783.26 212.884ZM792.824 211.336C792.824 212.272 792.476 212.98 791.78 213.46C791.084 213.94 790.148 214.18 788.972 214.18C788.3 214.18 787.718 214.126 787.226 214.018C786.746 213.91 786.32 213.76 785.948 213.568V212.128C786.332 212.32 786.794 212.5 787.334 212.668C787.886 212.824 788.444 212.902 789.008 212.902C789.812 212.902 790.394 212.776 790.754 212.524C791.114 212.26 791.294 211.912 791.294 211.48C791.294 211.24 791.228 211.024 791.096 210.832C790.964 210.64 790.724 210.448 790.376 210.256C790.04 210.064 789.554 209.848 788.918 209.608C788.294 209.368 787.76 209.128 787.316 208.888C786.872 208.648 786.53 208.36 786.29 208.024C786.05 207.688 785.93 207.256 785.93 206.728C785.93 205.912 786.26 205.282 786.92 204.838C787.592 204.394 788.468 204.172 789.548 204.172C790.136 204.172 790.682 204.232 791.186 204.352C791.702 204.46 792.182 204.616 792.626 204.82L792.086 206.08C791.678 205.912 791.252 205.768 790.808 205.648C790.364 205.528 789.908 205.468 789.44 205.468C788.792 205.468 788.294 205.576 787.946 205.792C787.61 205.996 787.442 206.278 787.442 206.638C787.442 206.902 787.52 207.13 787.676 207.322C787.832 207.502 788.09 207.682 788.45 207.862C788.822 208.03 789.314 208.234 789.926 208.474C790.538 208.702 791.06 208.936 791.492 209.176C791.924 209.416 792.254 209.71 792.482 210.058C792.71 210.394 792.824 210.82 792.824 211.336ZM804.421 204.172C805.609 204.172 806.563 204.586 807.283 205.414C808.015 206.242 808.381 207.49 808.381 209.158C808.381 210.802 808.015 212.05 807.283 212.902C806.563 213.754 805.603 214.18 804.403 214.18C803.659 214.18 803.041 214.042 802.549 213.766C802.069 213.478 801.691 213.148 801.415 212.776H801.307C801.331 212.98 801.355 213.238 801.379 213.55C801.403 213.862 801.415 214.132 801.415 214.36V218.32H799.831V204.352H801.127L801.343 205.666H801.415C801.703 205.246 802.081 204.892 802.549 204.604C803.017 204.316 803.641 204.172 804.421 204.172ZM804.133 205.504C803.149 205.504 802.453 205.78 802.045 206.332C801.649 206.884 801.439 207.724 801.415 208.852V209.158C801.415 210.346 801.607 211.264 801.991 211.912C802.387 212.548 803.113 212.866 804.169 212.866C804.757 212.866 805.237 212.704 805.609 212.38C805.993 212.056 806.275 211.618 806.455 211.066C806.647 210.502 806.743 209.86 806.743 209.14C806.743 208.036 806.527 207.154 806.095 206.494C805.675 205.834 805.021 205.504 804.133 205.504ZM814.631 204.172C815.459 204.172 816.167 204.352 816.755 204.712C817.355 205.072 817.811 205.582 818.123 206.242C818.447 206.89 818.609 207.652 818.609 208.528V209.482H812.003C812.027 210.574 812.303 211.408 812.831 211.984C813.371 212.548 814.121 212.83 815.081 212.83C815.693 212.83 816.233 212.776 816.701 212.668C817.181 212.548 817.673 212.38 818.177 212.164V213.55C817.685 213.766 817.199 213.922 816.719 214.018C816.239 214.126 815.669 214.18 815.009 214.18C814.097 214.18 813.287 213.994 812.579 213.622C811.883 213.25 811.337 212.698 810.941 211.966C810.557 211.222 810.365 210.316 810.365 209.248C810.365 208.192 810.539 207.286 810.887 206.53C811.247 205.774 811.745 205.192 812.381 204.784C813.029 204.376 813.779 204.172 814.631 204.172ZM814.613 205.468C813.857 205.468 813.257 205.714 812.813 206.206C812.381 206.686 812.123 207.358 812.039 208.222H816.953C816.941 207.406 816.749 206.746 816.377 206.242C816.005 205.726 815.417 205.468 814.613 205.468ZM829.453 209.158C829.453 210.754 829.045 211.99 828.229 212.866C827.425 213.742 826.333 214.18 824.953 214.18C824.101 214.18 823.339 213.988 822.667 213.604C822.007 213.208 821.485 212.638 821.101 211.894C820.717 211.138 820.525 210.226 820.525 209.158C820.525 207.562 820.927 206.332 821.731 205.468C822.535 204.604 823.627 204.172 825.007 204.172C825.883 204.172 826.651 204.37 827.311 204.766C827.983 205.15 828.505 205.714 828.877 206.458C829.261 207.19 829.453 208.09 829.453 209.158ZM822.163 209.158C822.163 210.298 822.385 211.204 822.829 211.876C823.285 212.536 824.005 212.866 824.989 212.866C825.961 212.866 826.675 212.536 827.131 211.876C827.587 211.204 827.815 210.298 827.815 209.158C827.815 208.018 827.587 207.124 827.131 206.476C826.675 205.828 825.955 205.504 824.971 205.504C823.987 205.504 823.273 205.828 822.829 206.476C822.385 207.124 822.163 208.018 822.163 209.158ZM836.554 204.172C837.742 204.172 838.696 204.586 839.416 205.414C840.148 206.242 840.514 207.49 840.514 209.158C840.514 210.802 840.148 212.05 839.416 212.902C838.696 213.754 837.736 214.18 836.536 214.18C835.792 214.18 835.174 214.042 834.682 213.766C834.202 213.478 833.824 213.148 833.548 212.776H833.44C833.464 212.98 833.488 213.238 833.512 213.55C833.536 213.862 833.548 214.132 833.548 214.36V218.32H831.964V204.352H833.26L833.476 205.666H833.548C833.836 205.246 834.214 204.892 834.682 204.604C835.15 204.316 835.774 204.172 836.554 204.172ZM836.266 205.504C835.282 205.504 834.586 205.78 834.178 206.332C833.782 206.884 833.572 207.724 833.548 208.852V209.158C833.548 210.346 833.74 211.264 834.124 211.912C834.52 212.548 835.246 212.866 836.302 212.866C836.89 212.866 837.37 212.704 837.742 212.38C838.126 212.056 838.408 211.618 838.588 211.066C838.78 210.502 838.876 209.86 838.876 209.14C838.876 208.036 838.66 207.154 838.228 206.494C837.808 205.834 837.154 205.504 836.266 205.504ZM844.622 214H843.038V200.32H844.622V214ZM851.404 204.172C852.232 204.172 852.94 204.352 853.528 204.712C854.128 205.072 854.584 205.582 854.896 206.242C855.22 206.89 855.382 207.652 855.382 208.528V209.482H848.776C848.8 210.574 849.076 211.408 849.604 211.984C850.144 212.548 850.894 212.83 851.854 212.83C852.466 212.83 853.006 212.776 853.474 212.668C853.954 212.548 854.446 212.38 854.95 212.164V213.55C854.458 213.766 853.972 213.922 853.492 214.018C853.012 214.126 852.442 214.18 851.782 214.18C850.87 214.18 850.06 213.994 849.352 213.622C848.656 213.25 848.11 212.698 847.714 211.966C847.33 211.222 847.138 210.316 847.138 209.248C847.138 208.192 847.312 207.286 847.66 206.53C848.02 205.774 848.518 205.192 849.154 204.784C849.802 204.376 850.552 204.172 851.404 204.172ZM851.386 205.468C850.63 205.468 850.03 205.714 849.586 206.206C849.154 206.686 848.896 207.358 848.812 208.222H853.726C853.714 207.406 853.522 206.746 853.15 206.242C852.778 205.726 852.19 205.468 851.386 205.468ZM866.96 205.576H864.53V214H862.946V205.576H861.254V204.838L862.946 204.298V203.74C862.946 202.492 863.222 201.598 863.774 201.058C864.326 200.506 865.094 200.23 866.078 200.23C866.462 200.23 866.81 200.266 867.122 200.338C867.446 200.398 867.722 200.47 867.95 200.554L867.536 201.796C867.344 201.736 867.122 201.676 866.87 201.616C866.618 201.556 866.36 201.526 866.096 201.526C865.568 201.526 865.172 201.706 864.908 202.066C864.656 202.414 864.53 202.966 864.53 203.722V204.352H866.96V205.576ZM869.516 200.734C869.756 200.734 869.966 200.818 870.146 200.986C870.338 201.142 870.434 201.394 870.434 201.742C870.434 202.078 870.338 202.33 870.146 202.498C869.966 202.666 869.756 202.75 869.516 202.75C869.252 202.75 869.03 202.666 868.85 202.498C868.67 202.33 868.58 202.078 868.58 201.742C868.58 201.394 868.67 201.142 868.85 200.986C869.03 200.818 869.252 200.734 869.516 200.734ZM870.29 204.352V214H868.706V204.352H870.29ZM877.843 204.172C878.023 204.172 878.215 204.184 878.419 204.208C878.635 204.22 878.821 204.244 878.977 204.28L878.779 205.738C878.623 205.702 878.449 205.672 878.257 205.648C878.077 205.624 877.903 205.612 877.735 205.612C877.243 205.612 876.781 205.75 876.349 206.026C875.917 206.29 875.569 206.668 875.305 207.16C875.053 207.64 874.927 208.204 874.927 208.852V214H873.343V204.352H874.639L874.819 206.116H874.891C875.203 205.588 875.605 205.132 876.097 204.748C876.589 204.364 877.171 204.172 877.843 204.172ZM887.06 211.336C887.06 212.272 886.712 212.98 886.016 213.46C885.32 213.94 884.384 214.18 883.208 214.18C882.536 214.18 881.954 214.126 881.462 214.018C880.982 213.91 880.556 213.76 880.184 213.568V212.128C880.568 212.32 881.03 212.5 881.57 212.668C882.122 212.824 882.68 212.902 883.244 212.902C884.048 212.902 884.63 212.776 884.99 212.524C885.35 212.26 885.53 211.912 885.53 211.48C885.53 211.24 885.464 211.024 885.332 210.832C885.2 210.64 884.96 210.448 884.612 210.256C884.276 210.064 883.79 209.848 883.154 209.608C882.53 209.368 881.996 209.128 881.552 208.888C881.108 208.648 880.766 208.36 880.526 208.024C880.286 207.688 880.166 207.256 880.166 206.728C880.166 205.912 880.496 205.282 881.156 204.838C881.828 204.394 882.704 204.172 883.784 204.172C884.372 204.172 884.918 204.232 885.422 204.352C885.938 204.46 886.418 204.616 886.862 204.82L886.322 206.08C885.914 205.912 885.488 205.768 885.044 205.648C884.6 205.528 884.144 205.468 883.676 205.468C883.028 205.468 882.53 205.576 882.182 205.792C881.846 205.996 881.678 206.278 881.678 206.638C881.678 206.902 881.756 207.13 881.912 207.322C882.068 207.502 882.326 207.682 882.686 207.862C883.058 208.03 883.55 208.234 884.162 208.474C884.774 208.702 885.296 208.936 885.728 209.176C886.16 209.416 886.49 209.71 886.718 210.058C886.946 210.394 887.06 210.82 887.06 211.336ZM892.613 212.884C892.853 212.884 893.099 212.866 893.351 212.83C893.603 212.782 893.807 212.734 893.963 212.686V213.892C893.795 213.976 893.555 214.042 893.243 214.09C892.931 214.15 892.631 214.18 892.343 214.18C891.839 214.18 891.371 214.096 890.939 213.928C890.519 213.748 890.177 213.442 889.913 213.01C889.649 212.578 889.517 211.972 889.517 211.192V205.576H888.149V204.82L889.535 204.19L890.165 202.138H891.101V204.352H893.891V205.576H891.101V211.156C891.101 211.744 891.239 212.182 891.515 212.47C891.803 212.746 892.169 212.884 892.613 212.884ZM895.661 213.028C895.661 212.584 895.769 212.272 895.985 212.092C896.201 211.912 896.459 211.822 896.759 211.822C897.071 211.822 897.335 211.912 897.551 212.092C897.779 212.272 897.893 212.584 897.893 213.028C897.893 213.46 897.779 213.772 897.551 213.964C897.335 214.156 897.071 214.252 896.759 214.252C896.459 214.252 896.201 214.156 895.985 213.964C895.769 213.772 895.661 213.46 895.661 213.028Z" fill="#FBFAF7"/>
<g clip-path="url(#clip2_1_1355)">
<path d="M-166 527.954C-116.21 507.034 -70.6911 477.822 -31.5587 441.675C-9.43388 421.22 10.4692 398.709 29.8546 375.813C43.5459 359.663 57.0919 343.094 66.7584 324.42C75.6863 307.156 81.1187 288.482 85.9519 269.797C94.1566 238.186 100.853 206.256 106.041 174.006C112.189 135.707 116.097 96.0368 105.64 58.617C102.08 45.869 95.8744 32.4415 83.5091 26.6662C65.7755 18.368 44.8662 29.5956 30.3897 42.4717C9.73051 60.8503 -6.53741 83.2498 -22.2296 105.699C-75.5235 181.937 -125.333 263.727 -139.484 354.517" fill="#194429"/>
<path d="M-36.4153 366.964C-22.8635 347.657 -10.3373 327.712 1.16323 307.128C12.6638 286.544 23.0748 265.451 32.3963 243.85C41.7216 222.338 49.9224 200.419 56.9988 178.094C64.0752 155.769 69.9922 133.184 74.7499 110.338C79.5075 87.4303 83.0748 64.3328 85.4517 41.0459C85.7425 38.1499 86.0178 35.2483 86.2776 32.3412C86.6033 28.671 80.6243 28.7044 80.2985 32.3412C78.2435 55.3941 74.9903 78.3079 70.5389 101.082C66.0954 123.786 60.4963 146.249 53.7418 168.47C46.9872 190.692 39.0946 212.616 30.064 234.243C21.1186 255.636 11.0799 276.566 -0.0523567 297.031C-11.1846 317.496 -23.3501 337.423 -36.5491 356.811C-38.2125 359.247 -39.8914 361.675 -41.5859 364.096C-43.7379 367.159 -38.5557 370.021 -36.4153 366.964Z" fill="#153A23"/>
<path d="M74.2555 111.453C81.2757 100.314 82.5146 97.6297 91.4192 87.8612C92.4719 86.6973 104.372 74.2778 103.174 73.1361C102.08 72.0891 92.6231 79.4628 91.5413 80.6323C82.311 90.7572 76.3552 97.0115 69.0791 108.568C67.0958 111.731 72.2664 114.605 74.2555 111.453Z" fill="#153A23"/>
<path d="M56.5859 180.244C64.8216 164.973 68.166 159.231 78.5828 145.308C79.5308 144.049 92.5766 129.948 91.2738 129.218C89.7615 128.377 83.1311 134.036 81.9271 135.099C61.6285 153.255 59.6569 162.071 51.4153 177.348C49.653 180.633 54.812 183.529 56.5859 180.244Z" fill="#153A23"/>
<path d="M39.1256 227.733C50.0213 210.015 61.8127 192.847 74.4998 176.228C78.0593 171.572 77.9895 171.528 81.6887 166.972C82.6774 165.753 89.0345 156.569 87.7957 155.383C86.7604 154.397 76.6286 164.037 75.634 165.268C62.2334 181.77 55.2016 191.978 43.6216 209.677C40.318 214.697 37.0997 219.758 33.9667 224.859C31.9892 228.045 37.1772 230.924 39.1256 227.733Z" fill="#153A23"/>
<path d="M20.1008 268.717C35.2695 257.578 54.7014 240.247 67.0667 226.279C86.6848 204.108 68.8116 215.452 62.8267 222.23C50.7988 235.802 36.299 247.214 21.5316 258.035C20.252 258.97 19.5774 260.508 20.4672 261.933C21.2059 263.142 18.7805 266.227 20.0717 265.275L20.1008 268.717Z" fill="#153A23"/>
<path d="M-87.2431 441.948C-61.995 436.696 -38.672 425.441 -17.9721 410.81C2.84993 396.108 20.9383 378.063 36.9445 358.643C56.0333 335.459 72.1966 310.247 88.4122 285.185C103.895 261.237 119.238 236.805 138.001 215.046C153.077 197.57 171.869 180.984 195.116 174.563C197.986 173.777 200.899 173.141 203.841 172.658L199.822 170.804C203.695 177.487 197.862 184.827 192.976 189.611C189.405 193.103 185.368 196.127 181.472 199.268L167.559 210.468C149.409 225.089 131.25 239.71 113.085 254.331C102.895 262.54 97.5436 267.369 87.3478 275.572C85.9635 276.686 80.9209 282.127 81.9213 283.514C82.8577 284.801 85.033 285.675 86.5743 284.695C110.341 269.508 139.377 263.844 167.454 268.917C166.71 266.879 165.965 264.846 165.221 262.791C141.371 283.065 113.995 299.179 84.335 310.402C76.0436 313.533 67.5937 316.263 59.0171 318.584L63.4257 322.176C67.8344 299.047 64.6471 274.782 54.8701 253.245C52.122 247.203 48.8353 241.399 45.0465 235.897C43.2726 233.319 39.6258 233.435 38.3172 236.37C28.9116 257.729 25.4739 281.065 28.3424 304.081C30.7735 323.685 39.1896 346.965 62.3614 350.59C73.2319 352.261 84.1256 348.919 94.9845 350.189C101.894 350.986 110.229 354.645 112.805 361.032C113.794 363.494 113.317 367.008 111.799 369.247C111.009 370.366 109.997 371.325 108.821 372.071C107.414 372.916 105.888 373.567 104.29 374.003C100.404 374.996 96.3745 375.372 92.3614 375.117C88.29 374.944 84.2187 374.56 80.4381 373.446C80.1706 373.363 79.9205 373.268 79.6646 373.168C79.083 372.945 80.1008 373.463 79.3912 373.006C78.7747 372.622 78.1698 372.238 77.5882 371.815C77.0066 371.391 77.5882 371.859 77.1404 371.464C76.8786 371.23 76.6227 371.001 76.3668 370.756C75.6979 370.122 75.0581 369.453 74.4416 368.768C71.9182 365.881 69.5648 362.862 67.3924 359.724C63.1931 353.87 59.0578 347.037 52.8519 342.905C51.5656 342.03 50.1339 341.371 48.6177 340.955C44.0985 339.808 41.772 346.43 46.3261 347.599C46.6285 347.677 46.9077 347.772 47.2276 347.867C47.5475 347.961 48.2862 348.385 47.5068 347.961C48.1316 348.296 48.7338 348.668 49.3098 349.075C50.4492 349.952 51.5006 350.929 52.4506 351.994C55.0846 354.95 57.5244 358.06 59.7557 361.305C64.0364 367.264 68.259 374.388 74.7092 378.464C77.9953 380.553 82.0725 381.06 85.8996 381.589C90.4078 382.218 94.9772 382.341 99.5153 381.956C107.809 381.232 116.563 377.835 119.628 369.815C122.85 361.383 118.086 353.141 110.717 348.485C107.021 346.178 102.896 344.573 98.5673 343.757C93.2105 342.738 87.8305 343.044 82.4156 343.456C71.7022 344.275 60.4246 345.539 51.4211 338.728C43.7379 332.908 39.7887 323.256 37.596 314.39C32.1345 292.236 34.1993 268.104 41.993 246.713C42.9934 243.98 44.0849 241.279 45.2675 238.609L38.5382 239.083C51.51 257.974 58.3095 280.137 58.069 302.745C57.9839 309.155 57.3361 315.547 56.1322 321.853C55.7193 324.025 58.4587 326.008 60.5409 325.451C92.2232 316.855 122.078 302.985 148.738 284.478C156.123 279.353 163.236 273.877 170.048 268.071C172.672 265.843 170.787 262.501 167.821 261.944C145.202 257.901 121.442 260.747 100.353 269.541C94.397 272.03 91.3319 273.439 85.917 276.909C87.2664 278.825 85.9868 282.3 87.3303 284.216C106.225 268.993 125.124 253.771 144.027 238.548L172.369 215.714L186.817 204.08C190.806 200.861 194.959 197.77 198.519 194.122C205.335 187.188 211.786 177.142 206.307 167.674C205.93 166.996 205.337 166.451 204.614 166.117C203.891 165.784 203.076 165.679 202.288 165.819C177.592 169.924 156.834 184.755 140.205 202.019C120.919 222.096 105.617 245.526 90.57 268.572C74.0927 293.873 58.1621 319.536 39.7538 343.573C24.178 363.895 6.65373 382.897 -13.7553 398.864C-33.1815 414.063 -55.3819 426.443 -79.6355 432.959C-82.6425 433.767 -85.6844 434.48 -88.7321 435.12C-93.3443 436.056 -91.8437 442.9 -87.2431 441.948Z" fill="#1F7A36"/>
<path d="M-3.99573 497.385C3.79799 512.132 11.8941 526.679 24.2012 537.428C39.6956 550.961 58.2319 561.888 79.8507 563.809C101.47 565.73 126.537 557.293 142.468 538.541C145.679 534.76 148.61 530.266 148.802 525.671C149.209 515.975 138.414 512.583 130.132 509.308C121.85 506.034 114.399 495.274 121.803 487.884L169.077 502.921C181.216 506.78 194.04 510.662 207.551 507.482C221.062 504.302 235.068 491.331 234.783 477.714C234.201 449.027 182.437 458.974 175.178 432.414C187.433 427.118 200.188 429.568 211.733 432.692C223.278 435.817 235.213 439.543 247.794 436.513C260.374 433.483 273.466 420.73 272.082 408.282C269.831 388.194 234.981 386.145 239.407 365.221C240.983 357.764 247.422 351.771 251.691 345.049C261.078 330.241 266.749 299.014 246.979 286.823C234.422 279.042 211 282.869 199.496 296.235C187.346 310.319 185.7 329.16 177.063 352.829C172.991 364.051 161.156 358.087 156.747 348.697C155.351 345.723 155.531 342.014 155.537 338.483C155.537 321.909 148.017 303.909 131.935 303.692C115.94 303.475 101.702 321.296 97.1307 337.893C92.5591 354.489 94.083 371.23 90.3257 387.916C89.5696 391.257 88.4878 394.838 85.9868 397.433C79.2051 404.473 68.6662 398.581 66.1361 390.411C63.6061 382.241 64.8565 372.294 60.634 365.132C55.7076 356.778 44.1218 354.656 33.8387 358.07C23.5556 361.484 14.5405 369.398 7.14812 378.103C-7.89259 395.857 -17.6347 417.973 -19.967 439.671C-19.967 439.687 -16.5646 473.615 -3.99573 497.385Z" fill="#198C36"/>
<path d="M129.434 126.679C126.747 118.882 123.117 104.686 121.937 96.5438C121.722 94.9622 121.937 92.8124 123.577 92.5507C125.078 92.2889 126.072 93.9653 126.596 95.3353C129.868 103.964 133.116 112.607 136.338 121.266C143.264 116.019 151.421 112.468 160.103 110.918C160.345 110.879 160.594 110.904 160.823 110.989C161.052 111.075 161.252 111.219 161.402 111.406C161.552 111.592 161.646 111.815 161.675 112.048C161.703 112.282 161.664 112.519 161.563 112.734C159.162 117.784 155.18 121.994 150.169 124.78C148.354 125.777 146.249 126.813 145.743 128.751C145.417 130.004 145.917 131.29 146.365 132.499C149.187 139.985 150.959 147.796 151.634 155.728C151.649 156.035 151.567 156.339 151.399 156.6C151.231 156.861 150.985 157.068 150.692 157.193C150.399 157.318 150.074 157.356 149.759 157.301C149.443 157.247 149.152 157.102 148.924 156.887C143.561 151.936 141.817 143.704 137.414 137.617C136.985 136.88 136.32 136.295 135.518 135.946C134.488 135.601 133.348 135.946 132.33 136.336C124.398 139.183 116.254 141.456 107.966 143.136C105.727 143.576 102.342 143.008 102.767 140.908C102.953 140.264 103.348 139.692 103.895 139.277C107.507 135.962 111.761 133.355 116.417 131.602L129.434 126.679Z" fill="#FBC8B8"/>
<path d="M160.789 61.4408C155.525 66.2081 156.822 76.2884 165.838 73.8714C179.139 70.2903 169.798 53.2763 160.789 61.4408Z" fill="#F7BC28"/>
<path d="M273.629 343.328C268.395 348.101 269.669 358.176 278.678 355.759C291.974 352.178 282.668 335.169 273.629 343.328Z" fill="#F7BC28"/>
<path d="M288.519 368.574C286.041 370.696 286.658 375.173 290.898 374.104C297.162 372.533 292.759 364.948 288.519 368.574Z" fill="#F7BC28"/>
</g>
<path d="M467.223 156.48C462.391 156.48 458.327 154.752 455.031 151.296C451.735 147.808 450.087 143.712 450.087 139.008C450.087 133.792 451.671 129.568 454.839 126.336C458.007 123.104 461.815 121.488 466.263 121.488C470.199 121.488 473.479 122.384 476.103 124.176C478.759 125.968 480.087 128.016 480.087 130.32C480.087 131.312 479.783 132.112 479.175 132.72C478.599 133.328 477.815 133.632 476.823 133.632C475.863 133.632 474.967 133.312 474.135 132.672C473.335 132.032 472.631 131.264 472.023 130.368C471.415 129.472 470.775 128.576 470.103 127.68C469.463 126.784 468.647 126.016 467.655 125.376C466.695 124.736 465.607 124.416 464.391 124.416C462.311 124.416 460.583 125.36 459.207 127.248C457.831 129.136 457.143 131.504 457.143 134.352C457.143 139.152 458.295 143.232 460.599 146.592C462.935 149.952 465.703 151.632 468.903 151.632C470.567 151.632 472.007 151.312 473.223 150.672V143.616C473.223 143.136 473.063 142.704 472.743 142.32C472.455 141.904 472.135 141.6 471.783 141.408C471.431 141.216 471.095 140.992 470.775 140.736C470.487 140.48 470.343 140.224 470.343 139.968V139.776C470.343 139.2 470.743 138.912 471.543 138.912L481.383 138.96C482.119 138.96 482.487 139.232 482.487 139.776V139.968C482.487 140.288 482.279 140.608 481.863 140.928C481.447 141.216 481.031 141.584 480.615 142.032C480.199 142.48 479.991 143.024 479.991 143.664V149.808C479.991 150.992 479.399 152.048 478.215 152.976C475.335 155.312 471.671 156.48 467.223 156.48ZM503.937 148.704C504.225 148.32 504.577 148.192 504.993 148.32C505.409 148.448 505.601 148.752 505.569 149.232C505.409 150.896 504.449 152.528 502.689 154.128C500.929 155.696 498.641 156.48 495.825 156.48C492.433 156.48 489.649 155.36 487.473 153.12C485.297 150.88 484.209 147.936 484.209 144.288C484.209 140.864 485.345 138.048 487.617 135.84C489.889 133.6 492.625 132.48 495.825 132.48C498.737 132.48 500.977 133.168 502.545 134.544C504.113 135.92 504.897 137.504 504.897 139.296C504.897 140.768 504.193 141.824 502.785 142.464L492.129 147.312C493.441 150.096 495.553 151.488 498.465 151.488C499.681 151.488 500.769 151.232 501.729 150.72C502.721 150.176 503.457 149.504 503.937 148.704ZM494.961 134.592C493.713 134.592 492.721 135.2 491.985 136.416C491.249 137.6 490.881 139.12 490.881 140.976C490.881 142.544 491.041 143.92 491.361 145.104L497.553 141.984C498.385 141.568 498.801 140.816 498.801 139.728C498.801 138.64 498.449 137.52 497.745 136.368C497.041 135.184 496.113 134.592 494.961 134.592ZM517.435 156.48C515.195 156.48 513.419 155.776 512.107 154.368C510.827 152.928 510.187 150.864 510.187 148.176V135.744H507.931C507.291 135.744 506.971 135.424 506.971 134.784V133.968C506.971 133.296 507.291 132.96 507.931 132.96H509.131C510.443 132.96 511.547 132.528 512.443 131.664C513.371 130.8 513.963 129.648 514.219 128.208C514.379 127.44 514.747 127.056 515.323 127.056H516.283C516.987 127.056 517.339 127.44 517.339 128.208L517.387 132.96H522.907C523.163 132.96 523.387 133.056 523.579 133.248C523.771 133.44 523.867 133.68 523.867 133.968V134.784C523.867 135.072 523.771 135.312 523.579 135.504C523.387 135.664 523.163 135.744 522.907 135.744H517.387V148.272C517.387 149.2 517.611 149.952 518.059 150.528C518.539 151.072 519.131 151.344 519.835 151.344C521.499 151.344 522.587 150.624 523.099 149.184C523.387 148.768 523.739 148.608 524.155 148.704C524.603 148.768 524.827 149.024 524.827 149.472C524.827 151.328 524.155 152.96 522.811 154.368C521.499 155.776 519.707 156.48 517.435 156.48ZM550.592 156.48C546.336 156.48 542.896 155.584 540.272 153.792C537.68 151.968 536.384 149.984 536.384 147.84C536.384 146.944 536.624 146.24 537.104 145.728C537.584 145.184 538.304 144.912 539.264 144.912C540.128 144.944 540.864 145.264 541.472 145.872C542.112 146.48 542.656 147.216 543.104 148.08C543.584 148.944 544.096 149.808 544.64 150.672C545.184 151.504 545.984 152.224 547.04 152.832C548.096 153.44 549.376 153.744 550.88 153.744C552.576 153.744 553.92 153.312 554.912 152.448C555.936 151.552 556.448 150.368 556.448 148.896C556.448 147.52 556.08 146.384 555.344 145.488C554.64 144.592 553.712 143.92 552.56 143.472C551.44 142.992 550.192 142.592 548.816 142.272C547.44 141.92 546.064 141.52 544.688 141.072C543.312 140.624 542.048 140.064 540.896 139.392C539.744 138.688 538.8 137.68 538.064 136.368C537.36 135.024 537.008 133.392 537.008 131.472C537.008 128.528 538.144 126.128 540.416 124.272C542.72 122.416 545.824 121.488 549.728 121.488C553.568 121.488 556.752 122.352 559.28 124.08C561.84 125.776 563.104 127.68 563.072 129.792C563.072 131.776 562.048 132.768 560 132.768C559.04 132.768 558.24 132.48 557.6 131.904C556.992 131.296 556.48 130.576 556.064 129.744C555.68 128.912 555.264 128.08 554.816 127.248C554.368 126.416 553.696 125.712 552.8 125.136C551.936 124.528 550.864 124.224 549.584 124.224C547.824 124.224 546.48 124.688 545.552 125.616C544.624 126.544 544.16 127.728 544.16 129.168C544.16 130.544 544.512 131.696 545.216 132.624C545.952 133.552 546.88 134.256 548 134.736C549.152 135.216 550.416 135.648 551.792 136.032C553.168 136.384 554.544 136.8 555.92 137.28C557.296 137.728 558.544 138.288 559.664 138.96C560.816 139.632 561.744 140.624 562.448 141.936C563.184 143.248 563.552 144.832 563.552 146.688C563.552 149.696 562.304 152.08 559.808 153.84C557.312 155.6 554.24 156.48 550.592 156.48ZM575.607 156.48C573.367 156.48 571.591 155.776 570.279 154.368C568.999 152.928 568.359 150.864 568.359 148.176V135.744H566.103C565.463 135.744 565.143 135.424 565.143 134.784V133.968C565.143 133.296 565.463 132.96 566.103 132.96H567.303C568.615 132.96 569.719 132.528 570.615 131.664C571.543 130.8 572.135 129.648 572.391 128.208C572.551 127.44 572.919 127.056 573.495 127.056H574.455C575.159 127.056 575.511 127.44 575.511 128.208L575.559 132.96H581.079C581.335 132.96 581.559 133.056 581.751 133.248C581.943 133.44 582.039 133.68 582.039 133.968V134.784C582.039 135.072 581.943 135.312 581.751 135.504C581.559 135.664 581.335 135.744 581.079 135.744H575.559V148.272C575.559 149.2 575.783 149.952 576.231 150.528C576.711 151.072 577.303 151.344 578.007 151.344C579.671 151.344 580.759 150.624 581.271 149.184C581.559 148.768 581.911 148.608 582.327 148.704C582.775 148.768 582.999 149.024 582.999 149.472C582.999 151.328 582.327 152.96 580.983 154.368C579.671 155.776 577.879 156.48 575.607 156.48ZM606.504 151.2C606.6 151.936 606.776 152.528 607.032 152.976C607.32 153.424 607.608 153.712 607.896 153.84C608.184 153.936 608.44 154.064 608.664 154.224C608.888 154.384 609 154.608 609 154.896C609 155.824 607.464 156.288 604.392 156.288C602.984 156.288 601.944 156.112 601.272 155.76C600.632 155.376 600.248 154.688 600.12 153.696C598.872 155.552 596.744 156.48 593.736 156.48C591.048 156.48 588.872 155.856 587.208 154.608C585.544 153.36 584.712 151.568 584.712 149.232C584.68 146.928 585.496 145.136 587.16 143.856C588.824 142.576 590.904 141.936 593.4 141.936C595.512 141.936 597.256 142.416 598.632 143.376L598.584 142.8C598.264 139.76 597.816 137.616 597.24 136.368C596.664 135.12 595.688 134.496 594.312 134.496C593.448 134.496 592.744 134.816 592.2 135.456C591.656 136.096 591.272 136.8 591.048 137.568C590.824 138.336 590.456 139.04 589.944 139.68C589.432 140.32 588.776 140.64 587.976 140.64C587.112 140.64 586.408 140.4 585.864 139.92C585.352 139.408 585.096 138.752 585.096 137.952C585.096 136.288 585.976 134.96 587.736 133.968C589.528 132.976 591.72 132.48 594.312 132.48C597.416 132.48 599.96 133.36 601.944 135.12C603.928 136.88 605.096 139.28 605.448 142.32L606.504 151.2ZM595.848 154.368C596.904 154.368 597.752 153.936 598.392 153.072C599.032 152.176 599.32 151.168 599.256 150.048L599.112 148.368C598.984 146.992 598.568 145.936 597.864 145.2C597.192 144.464 596.344 144.096 595.32 144.096C594.296 144.096 593.448 144.464 592.776 145.2C592.136 145.936 591.816 146.912 591.816 148.128C591.816 149.856 592.184 151.328 592.92 152.544C593.688 153.76 594.664 154.368 595.848 154.368ZM625.183 132.48C626.559 132.48 627.631 132.896 628.399 133.728C629.199 134.528 629.599 135.568 629.599 136.848C629.599 139.376 628.575 140.64 626.527 140.64C625.695 140.64 625.039 140.432 624.559 140.016C624.111 139.568 623.839 139.088 623.743 138.576C623.647 138.064 623.455 137.6 623.167 137.184C622.879 136.736 622.447 136.512 621.871 136.512C621.007 136.512 620.367 137.024 619.951 138.048C619.535 139.072 619.327 140.32 619.327 141.792V151.392C619.327 151.968 619.519 152.48 619.903 152.928C620.319 153.344 620.719 153.712 621.103 154.032C621.519 154.352 621.727 154.672 621.727 154.992V155.184C621.727 155.728 621.375 156 620.671 156H611.791C611.055 156 610.687 155.728 610.687 155.184V154.992C610.687 154.672 610.991 154.176 611.599 153.504C612.239 152.832 612.559 152.128 612.559 151.392V140.16C612.559 139.392 612.191 138.704 611.455 138.096C610.719 137.488 610.351 137.024 610.351 136.704V136.512C610.351 136.064 610.687 135.68 611.359 135.36L617.119 132.672C618.143 132.192 618.655 132.512 618.655 133.632V137.232C619.743 134.064 621.919 132.48 625.183 132.48ZM640.529 156.48C638.289 156.48 636.513 155.776 635.201 154.368C633.921 152.928 633.281 150.864 633.281 148.176V135.744H631.025C630.385 135.744 630.065 135.424 630.065 134.784V133.968C630.065 133.296 630.385 132.96 631.025 132.96H632.225C633.537 132.96 634.641 132.528 635.537 131.664C636.465 130.8 637.057 129.648 637.313 128.208C637.473 127.44 637.841 127.056 638.417 127.056H639.377C640.081 127.056 640.433 127.44 640.433 128.208L640.481 132.96H646.001C646.257 132.96 646.481 133.056 646.673 133.248C646.865 133.44 646.961 133.68 646.961 133.968V134.784C646.961 135.072 646.865 135.312 646.673 135.504C646.481 135.664 646.257 135.744 646.001 135.744H640.481V148.272C640.481 149.2 640.705 149.952 641.153 150.528C641.633 151.072 642.225 151.344 642.929 151.344C644.593 151.344 645.681 150.624 646.193 149.184C646.481 148.768 646.833 148.608 647.249 148.704C647.697 148.768 647.921 149.024 647.921 149.472C647.921 151.328 647.249 152.96 645.905 154.368C644.593 155.776 642.801 156.48 640.529 156.48ZM669.031 148.704C669.319 148.32 669.671 148.192 670.087 148.32C670.503 148.448 670.695 148.752 670.663 149.232C670.503 150.896 669.543 152.528 667.783 154.128C666.023 155.696 663.735 156.48 660.919 156.48C657.527 156.48 654.743 155.36 652.567 153.12C650.391 150.88 649.303 147.936 649.303 144.288C649.303 140.864 650.439 138.048 652.711 135.84C654.983 133.6 657.719 132.48 660.919 132.48C663.831 132.48 666.071 133.168 667.639 134.544C669.207 135.92 669.991 137.504 669.991 139.296C669.991 140.768 669.287 141.824 667.879 142.464L657.223 147.312C658.535 150.096 660.647 151.488 663.559 151.488C664.775 151.488 665.863 151.232 666.823 150.72C667.815 150.176 668.551 149.504 669.031 148.704ZM660.055 134.592C658.807 134.592 657.815 135.2 657.079 136.416C656.343 137.6 655.975 139.12 655.975 140.976C655.975 142.544 656.135 143.92 656.455 145.104L662.647 141.984C663.479 141.568 663.895 140.816 663.895 139.728C663.895 138.64 663.543 137.52 662.839 136.368C662.135 135.184 661.207 134.592 660.055 134.592ZM696.593 151.392C696.593 152.128 696.913 152.848 697.553 153.552C698.193 154.224 698.513 154.72 698.513 155.04V155.184C698.513 155.728 698.193 156 697.553 156H691.601C690.865 156 690.497 155.648 690.497 154.944L690.401 153.888C688.929 155.616 686.849 156.48 684.161 156.48C681.057 156.48 678.401 155.408 676.193 153.264C673.985 151.088 672.881 148.144 672.881 144.432C672.881 140.944 673.985 138.08 676.193 135.84C678.401 133.6 681.073 132.48 684.209 132.48C686.449 132.48 688.321 133.104 689.825 134.352V126.672C689.825 126.032 689.617 125.504 689.201 125.088C688.817 124.672 688.417 124.32 688.001 124.032C687.617 123.744 687.425 123.44 687.425 123.12V122.976C687.425 122.432 687.761 122.064 688.433 121.872L694.721 119.952C695.969 119.536 696.593 119.856 696.593 120.912V151.392ZM685.745 154.416C686.833 154.416 687.777 153.968 688.577 153.072C689.409 152.144 689.825 150.88 689.825 149.28V140.832C689.825 139.264 689.297 137.824 688.241 136.512C687.185 135.2 685.969 134.544 684.593 134.544C683.121 134.544 681.953 135.168 681.089 136.416C680.225 137.632 679.777 139.36 679.745 141.6C679.681 143.424 679.857 145.296 680.273 147.216C680.721 149.136 681.425 150.816 682.385 152.256C683.377 153.664 684.497 154.384 685.745 154.416ZM755.239 121.92C755.943 121.92 756.295 122.176 756.295 122.688V122.88C756.295 123.232 755.911 123.728 755.143 124.368C754.375 124.976 753.847 125.696 753.559 126.528L744.391 153.984C743.943 155.328 743.015 156 741.607 156C740.295 156 739.415 155.376 738.967 154.128L732.967 136.128L726.871 153.984C726.455 155.328 725.623 156 724.375 156C723.671 156 723.127 155.856 722.743 155.568C722.391 155.28 722.055 154.8 721.735 154.128L710.455 126.576C710.103 125.744 709.527 125.024 708.727 124.416C707.927 123.776 707.527 123.248 707.527 122.832V122.688C707.527 122.176 707.879 121.92 708.583 121.92H718.711C719.447 121.92 719.815 122.176 719.815 122.688V122.88C719.815 123.2 719.607 123.536 719.191 123.888C718.807 124.208 718.471 124.592 718.183 125.04C717.895 125.456 717.863 125.968 718.087 126.576L725.671 147.072L731.191 130.752L729.799 126.528C729.575 125.824 729.031 125.136 728.167 124.464C727.303 123.76 726.871 123.216 726.871 122.832V122.688C726.871 122.176 727.207 121.92 727.879 121.92H737.959C738.631 121.92 738.967 122.176 738.967 122.688V122.832C738.967 123.088 738.823 123.344 738.535 123.6C738.279 123.856 737.991 124.08 737.671 124.272C737.383 124.432 737.143 124.72 736.951 125.136C736.791 125.52 736.791 125.984 736.951 126.528L743.143 146.928L749.623 126.528C749.783 126.08 749.783 125.664 749.623 125.28C749.463 124.896 749.239 124.608 748.951 124.416C748.663 124.224 748.391 123.984 748.135 123.696C747.879 123.408 747.751 123.136 747.751 122.88V122.736C747.751 122.192 748.103 121.92 748.807 121.92H755.239ZM766.376 128.4C765.544 129.168 764.424 129.552 763.016 129.552C761.608 129.552 760.456 129.168 759.56 128.4C758.696 127.6 758.264 126.576 758.264 125.328C758.264 124.112 758.696 123.12 759.56 122.352C760.456 121.552 761.608 121.152 763.016 121.152C764.424 121.152 765.544 121.552 766.376 122.352C767.24 123.12 767.672 124.112 767.672 125.328C767.672 126.576 767.24 127.6 766.376 128.4ZM758.648 156C757.944 156 757.592 155.728 757.592 155.184V154.992C757.592 154.672 757.896 154.176 758.504 153.504C759.112 152.832 759.416 152.112 759.416 151.344V140.496C759.416 139.696 759.112 138.944 758.504 138.24C757.896 137.536 757.592 137.056 757.592 136.8V136.656C757.592 136.336 757.928 136 758.6 135.648L764.6 132.672C765.208 132.416 765.688 132.4 766.04 132.624C766.392 132.816 766.568 133.152 766.568 133.632V151.344C766.568 152.112 766.904 152.832 767.576 153.504C768.248 154.176 768.584 154.672 768.584 154.992V155.184C768.584 155.728 768.216 156 767.48 156H758.648ZM780.732 156.48C778.492 156.48 776.716 155.776 775.404 154.368C774.124 152.928 773.484 150.864 773.484 148.176V135.744H771.228C770.588 135.744 770.268 135.424 770.268 134.784V133.968C770.268 133.296 770.588 132.96 771.228 132.96H772.428C773.74 132.96 774.844 132.528 775.74 131.664C776.668 130.8 777.26 129.648 777.516 128.208C777.676 127.44 778.044 127.056 778.62 127.056H779.58C780.284 127.056 780.636 127.44 780.636 128.208L780.684 132.96H786.204C786.46 132.96 786.684 133.056 786.876 133.248C787.068 133.44 787.164 133.68 787.164 133.968V134.784C787.164 135.072 787.068 135.312 786.876 135.504C786.684 135.664 786.46 135.744 786.204 135.744H780.684V148.272C780.684 149.2 780.908 149.952 781.356 150.528C781.836 151.072 782.428 151.344 783.132 151.344C784.796 151.344 785.884 150.624 786.396 149.184C786.684 148.768 787.036 148.608 787.452 148.704C787.9 148.768 788.124 149.024 788.124 149.472C788.124 151.328 787.452 152.96 786.108 154.368C784.796 155.776 783.004 156.48 780.732 156.48ZM814.413 151.296C814.477 152.064 814.781 152.784 815.325 153.456C815.869 154.128 816.141 154.64 816.141 154.992V155.184C816.141 155.728 815.789 156 815.085 156H806.733C806.029 156 805.677 155.728 805.677 155.184V154.992C805.677 154.672 805.965 154.176 806.541 153.504C807.149 152.832 807.437 152.112 807.405 151.344L806.925 142.128C806.701 137.52 805.309 135.216 802.749 135.216C801.469 135.216 800.461 135.696 799.725 136.656C799.021 137.616 798.669 138.896 798.669 140.496V151.392C798.669 152.128 799.005 152.832 799.677 153.504C800.381 154.176 800.733 154.672 800.733 154.992V155.184C800.733 155.728 800.349 156 799.581 156H790.701C789.965 156 789.597 155.728 789.597 155.184V154.992C789.597 154.672 789.933 154.176 790.605 153.504C791.277 152.832 791.613 152.128 791.613 151.392V127.488C791.613 126.72 791.245 126.032 790.509 125.424C789.805 124.816 789.453 124.352 789.453 124.032V123.888C789.453 123.408 789.773 123.008 790.413 122.688L796.749 119.904C797.293 119.68 797.709 119.648 797.997 119.808C798.317 119.968 798.477 120.288 798.477 120.768L798.429 135.168C799.933 133.376 802.029 132.48 804.717 132.48C807.149 132.48 809.213 133.28 810.909 134.88C812.605 136.448 813.565 138.928 813.789 142.32L814.413 151.296ZM844.357 156.48C839.909 156.48 836.069 154.672 832.837 151.056C829.637 147.408 828.037 143.232 828.037 138.528C828.037 133.568 829.509 129.488 832.453 126.288C835.429 123.088 839.269 121.488 843.973 121.488C847.653 121.488 850.853 122.432 853.573 124.32C856.293 126.176 857.653 128.256 857.653 130.56C857.653 131.52 857.349 132.304 856.741 132.912C856.133 133.488 855.301 133.776 854.245 133.776C853.285 133.776 852.437 133.456 851.701 132.816C850.965 132.176 850.325 131.408 849.781 130.512C849.237 129.584 848.661 128.656 848.053 127.728C847.477 126.8 846.709 126.016 845.749 125.376C844.789 124.736 843.685 124.416 842.437 124.416C840.421 124.416 838.693 125.328 837.253 127.152C835.813 128.944 835.093 131.296 835.093 134.208C835.093 138.784 836.229 142.56 838.501 145.536C840.805 148.512 843.477 150 846.517 150C850.293 150 853.317 147.984 855.589 143.952C855.973 143.408 856.469 143.232 857.077 143.424C857.685 143.584 857.957 144.016 857.893 144.72C857.605 148.016 856.293 150.8 853.957 153.072C851.621 155.344 848.421 156.48 844.357 156.48ZM861.391 156C860.655 156 860.287 155.728 860.287 155.184V154.992C860.287 154.672 860.591 154.176 861.199 153.504C861.839 152.832 862.159 152.128 862.159 151.392V127.776C862.159 126.944 861.839 126.192 861.199 125.52C860.591 124.848 860.287 124.384 860.287 124.128V123.936C860.287 123.552 860.607 123.232 861.247 122.976L867.295 120C867.935 119.744 868.415 119.712 868.735 119.904C869.087 120.096 869.263 120.416 869.263 120.864V151.392C869.263 152.128 869.599 152.832 870.271 153.504C870.975 154.176 871.327 154.672 871.327 154.992V155.184C871.327 155.728 870.959 156 870.223 156H861.391ZM893.468 148.704C893.756 148.32 894.108 148.192 894.524 148.32C894.94 148.448 895.132 148.752 895.1 149.232C894.94 150.896 893.98 152.528 892.22 154.128C890.46 155.696 888.172 156.48 885.356 156.48C881.964 156.48 879.18 155.36 877.004 153.12C874.828 150.88 873.74 147.936 873.74 144.288C873.74 140.864 874.876 138.048 877.148 135.84C879.42 133.6 882.156 132.48 885.356 132.48C888.268 132.48 890.508 133.168 892.076 134.544C893.644 135.92 894.428 137.504 894.428 139.296C894.428 140.768 893.724 141.824 892.316 142.464L881.66 147.312C882.972 150.096 885.084 151.488 887.996 151.488C889.212 151.488 890.3 151.232 891.26 150.72C892.252 150.176 892.988 149.504 893.468 148.704ZM884.492 134.592C883.244 134.592 882.252 135.2 881.516 136.416C880.78 137.6 880.412 139.12 880.412 140.976C880.412 142.544 880.572 143.92 880.892 145.104L887.084 141.984C887.916 141.568 888.332 140.816 888.332 139.728C888.332 138.64 887.98 137.52 887.276 136.368C886.572 135.184 885.644 134.592 884.492 134.592ZM912.198 132.48C913.574 132.48 914.646 132.896 915.414 133.728C916.214 134.528 916.614 135.568 916.614 136.848C916.614 139.376 915.59 140.64 913.542 140.64C912.71 140.64 912.054 140.432 911.574 140.016C911.126 139.568 910.854 139.088 910.758 138.576C910.662 138.064 910.47 137.6 910.182 137.184C909.894 136.736 909.462 136.512 908.886 136.512C908.022 136.512 907.382 137.024 906.966 138.048C906.55 139.072 906.342 140.32 906.342 141.792V151.392C906.342 151.968 906.534 152.48 906.918 152.928C907.334 153.344 907.734 153.712 908.118 154.032C908.534 154.352 908.742 154.672 908.742 154.992V155.184C908.742 155.728 908.39 156 907.686 156H898.806C898.07 156 897.702 155.728 897.702 155.184V154.992C897.702 154.672 898.006 154.176 898.614 153.504C899.254 152.832 899.574 152.128 899.574 151.392V140.16C899.574 139.392 899.206 138.704 898.47 138.096C897.734 137.488 897.366 137.024 897.366 136.704V136.512C897.366 136.064 897.702 135.68 898.374 135.36L904.134 132.672C905.158 132.192 905.67 132.512 905.67 133.632V137.232C906.758 134.064 908.934 132.48 912.198 132.48ZM942.136 152.4C942.328 152.656 942.808 153.056 943.576 153.6C944.344 154.112 944.728 154.592 944.728 155.04V155.184C944.728 155.728 944.408 156 943.768 156H934.84C934.2 156 933.88 155.712 933.88 155.136V155.04C933.88 154.72 934.104 154.304 934.552 153.792C935.032 153.28 935.128 152.816 934.84 152.4L929.656 145.104L926.824 147.744V151.392C926.824 152.128 927.16 152.832 927.832 153.504C928.536 154.176 928.888 154.672 928.888 154.992V155.184C928.888 155.728 928.52 156 927.784 156H918.952C918.248 156 917.896 155.728 917.896 155.184V154.992C917.896 154.672 918.2 154.176 918.808 153.504C919.416 152.832 919.72 152.128 919.72 151.392V127.776C919.72 126.944 919.352 126.192 918.616 125.52C917.912 124.848 917.56 124.384 917.56 124.128V123.936C917.56 123.552 917.88 123.232 918.52 122.976L924.904 120C925.48 119.744 925.944 119.712 926.296 119.904C926.648 120.096 926.824 120.416 926.824 120.864V144.096L934.408 137.52C934.76 137.264 934.888 136.96 934.792 136.608C934.728 136.256 934.584 135.968 934.36 135.744C934.136 135.488 933.896 135.2 933.64 134.88C933.384 134.528 933.256 134.224 933.256 133.968V133.776C933.256 133.232 933.576 132.96 934.216 132.96H941.08C941.72 132.96 942.04 133.216 942.04 133.728V133.92C942.04 134.272 941.832 134.624 941.416 134.976C941.032 135.296 940.456 135.696 939.688 136.176C938.952 136.656 938.36 137.088 937.912 137.472L934.024 141.072L942.136 152.4ZM955.028 156.432C952.02 156.432 949.556 155.888 947.636 154.8C945.716 153.712 944.756 152.4 944.756 150.864C944.756 150 945.012 149.344 945.524 148.896C946.068 148.448 946.772 148.224 947.636 148.224C948.564 148.224 949.316 148.56 949.892 149.232C950.468 149.872 950.868 150.592 951.092 151.392C951.348 152.192 951.796 152.928 952.436 153.6C953.108 154.24 953.972 154.56 955.028 154.56C956.052 154.56 956.884 154.288 957.524 153.744C958.196 153.2 958.532 152.416 958.532 151.392C958.532 150.24 958.068 149.328 957.14 148.656C956.244 147.984 955.14 147.488 953.828 147.168C952.516 146.816 951.204 146.432 949.892 146.016C948.58 145.568 947.46 144.816 946.532 143.76C945.636 142.672 945.188 141.264 945.188 139.536C945.188 137.488 946.084 135.808 947.876 134.496C949.7 133.152 952.052 132.48 954.932 132.48C957.844 132.48 960.212 133.056 962.036 134.208C963.892 135.328 964.82 136.672 964.82 138.24C964.82 138.944 964.548 139.536 964.004 140.016C963.492 140.496 962.852 140.736 962.084 140.736C961.188 140.736 960.468 140.416 959.924 139.776C959.38 139.104 958.996 138.384 958.772 137.616C958.548 136.816 958.148 136.096 957.572 135.456C956.996 134.784 956.244 134.448 955.316 134.448C954.388 134.448 953.636 134.768 953.06 135.408C952.484 136.016 952.196 136.768 952.196 137.664C952.196 138.56 952.436 139.312 952.916 139.92C953.396 140.528 954.02 140.992 954.788 141.312C955.556 141.632 956.404 141.936 957.332 142.224C958.26 142.48 959.188 142.784 960.116 143.136C961.076 143.456 961.94 143.856 962.708 144.336C963.476 144.816 964.1 145.504 964.58 146.4C965.06 147.264 965.3 148.32 965.3 149.568C965.3 151.552 964.372 153.2 962.516 154.512C960.66 155.792 958.164 156.432 955.028 156.432ZM991.496 132.96C992.136 132.96 992.456 133.216 992.456 133.728V133.968C992.456 134.384 992.12 134.944 991.448 135.648C990.808 136.352 990.328 137.04 990.008 137.712L980.936 157.44C980.52 158.368 980.168 159.12 979.88 159.696C979.592 160.272 979.144 161.024 978.536 161.952C977.96 162.912 977.384 163.664 976.808 164.208C976.232 164.752 975.512 165.232 974.648 165.648C973.784 166.064 972.888 166.272 971.96 166.272C969.912 166.272 968.216 165.744 966.872 164.688C965.56 163.632 964.904 162.448 964.904 161.136C964.904 160.272 965.16 159.568 965.672 159.024C966.184 158.512 966.888 158.256 967.784 158.256C968.68 158.256 969.384 158.544 969.896 159.12C970.408 159.728 970.744 160.4 970.904 161.136C971.064 161.872 971.304 162.528 971.624 163.104C971.976 163.712 972.424 164.016 972.968 164.016C974.44 164.016 976.088 161.776 977.912 157.296L968.36 137.712C968.008 137.008 967.48 136.32 966.776 135.648C966.104 134.944 965.768 134.384 965.768 133.968V133.728C965.768 133.216 966.104 132.96 966.776 132.96H975.752C976.36 132.96 976.664 133.232 976.664 133.776V133.968C976.664 134.256 976.52 134.592 976.232 134.976C975.944 135.328 975.752 135.664 975.656 135.984C975.56 136.304 975.656 136.912 975.944 137.808L981.56 150.816L986.744 138.48C987.064 137.392 987.064 136.64 986.744 136.224C986.424 135.808 985.992 135.408 985.448 135.024C984.904 134.608 984.632 134.256 984.632 133.968V133.776C984.632 133.232 984.968 132.96 985.64 132.96H991.496Z" fill="#FBFAF7"/>
</g>
<defs>
<clipPath id="clip0_1_1355">
<rect width="1440" height="415" fill="white"/>
</clipPath>
<clipPath id="clip1_1_1355">
<rect width="300" height="400" fill="white" transform="translate(1140 20)"/>
</clipPath>
<clipPath id="clip2_1_1355">
<rect width="300" height="400" fill="white" transform="translate(0 20)"/>
</clipPath>
</defs>
</svg>
