<svg width="394" height="33" viewBox="0 0 394 33" fill="none" xmlns="http://www.w3.org/2000/svg">
<path d="M264.627 7.98062H267V4.16881C266.59 4.11687 265.182 4 263.542 4C260.12 4 257.776 5.98482 257.776 9.6328V12.9901H254V17.2514H257.776V27.9736H262.406V17.2524H266.029L266.605 12.9911H262.405V10.0553C262.406 8.82369 262.766 7.98062 264.627 7.98062Z" fill="#198C36"/>
<path d="M311 5.25392C309.884 5.70514 308.696 6.00423 307.456 6.14945C308.731 5.44754 309.704 4.34456 310.162 3.01509C308.973 3.66859 307.661 4.13018 306.262 4.38778C305.133 3.2796 303.524 2.59326 301.769 2.59326C298.364 2.59326 295.623 5.14154 295.623 8.26552C295.623 8.71502 295.664 9.14722 295.766 9.55868C290.653 9.32875 286.128 7.06918 283.089 3.6271C282.558 4.47595 282.247 5.44754 282.247 6.49348C282.247 8.45742 283.344 10.1983 284.979 11.2062C283.991 11.189 283.021 10.9244 282.2 10.5078C282.2 10.5251 282.2 10.5476 282.2 10.57C282.2 13.3258 284.332 15.6147 287.128 16.142C286.627 16.2682 286.081 16.3287 285.515 16.3287C285.121 16.3287 284.724 16.308 284.351 16.2319C285.148 18.4777 287.409 20.1287 290.097 20.1823C288.005 21.6915 285.348 22.6009 282.472 22.6009C281.967 22.6009 281.484 22.5802 281 22.5231C283.724 24.143 286.953 25.0679 290.435 25.0679C301.753 25.0679 307.94 16.4238 307.94 8.93112C307.94 8.68044 307.931 8.43841 307.917 8.1981C309.138 7.39938 310.164 6.40185 311 5.25392Z" fill="#198C36"/>
<path d="M350.605 0H329.395C326.972 0 325 1.81788 325 4.05192V23.6092C325 25.8433 326.972 27.6611 329.395 27.6611H350.605C353.028 27.6611 355 25.8433 355 23.6092V4.05192C355 1.81788 353.028 0 350.605 0ZM335.606 21.9344H332.09V10.589H335.606V21.9344ZM335.606 8.96826H332.09V5.72672H335.606V8.96826ZM347.91 21.9344H344.395V15.4513C344.395 14.5578 343.606 13.8306 342.637 13.8306C341.668 13.8306 340.879 14.5578 340.879 15.4513V21.9344H337.363V10.589H340.879V11.2C341.8 10.936 342.398 10.589 343.516 10.589C345.9 10.5913 347.91 12.5635 347.91 14.8942V21.9344Z" fill="#198C36"/>
<path d="M390.338 3H372.662C370.643 3 369 4.64299 369 6.66211V24.3379C369 26.357 370.643 28 372.662 28H390.338C392.357 28 394 26.357 394 24.3379V6.66211C394 4.64299 392.357 3 390.338 3ZM381.549 22.043C377.914 22.043 374.957 19.086 374.957 15.4512C374.957 11.8163 377.914 8.85938 381.549 8.85938C385.184 8.85938 388.141 11.8163 388.141 15.4512C388.141 19.086 385.184 22.043 381.549 22.043ZM388.873 10.3242C387.661 10.3242 386.676 9.3385 386.676 8.12695C386.676 6.91541 387.661 5.92969 388.873 5.92969C390.085 5.92969 391.07 6.91541 391.07 8.12695C391.07 9.3385 390.085 10.3242 388.873 10.3242Z" fill="#198C36"/>
<path d="M388.873 7.39453C388.469 7.39453 388.141 7.72279 388.141 8.12695C388.141 8.53112 388.469 8.85938 388.873 8.85938C389.277 8.85938 389.606 8.53112 389.606 8.12695C389.606 7.72279 389.277 7.39453 388.873 7.39453Z" fill="#198C36"/>
<path d="M381.549 10.3242C378.722 10.3242 376.422 12.6245 376.422 15.4512C376.422 18.2779 378.722 20.5781 381.549 20.5781C384.375 20.5781 386.676 18.2779 386.676 15.4512C386.676 12.6245 384.375 10.3242 381.549 10.3242Z" fill="#198C36"/>
</svg>
